<svg viewBox="0 0 35 35" fill="none" xmlns="http://www.w3.org/2000/svg">
<path fill-rule="evenodd" clip-rule="evenodd" d="M13.6619 10.1743L15.272 10.5751L15.2786 10.5818C15.6995 10.6887 15.9467 10.996 15.9467 11.4236V12.7597C15.9467 13.1939 15.6995 13.5012 15.2786 13.6014L13.6486 14.0023C13.6067 14.1279 13.5575 14.2554 13.5029 14.3828H27.9382C29.4681 14.3828 30.3032 15.1912 30.3032 16.7344V19.2396C30.0092 19.0994 29.6819 19.0392 29.3345 19.0392C28.9871 19.0392 28.6731 19.0994 28.3658 19.2263V17.2355C28.3658 16.6142 28.0585 16.3202 27.4372 16.3202H14.304C14.4167 16.6333 14.3474 16.9778 14.0962 17.229L13.1475 18.1844C12.8469 18.485 12.426 18.5251 12.0786 18.3046L10.649 17.4295C10.4218 17.5497 10.1613 17.6499 9.90072 17.7368L9.86707 17.8736V28.3654H22.5269C22.3265 28.7729 22.2396 29.1136 22.2396 29.5078C22.2396 30.0089 22.3666 30.4832 22.587 30.8773H5.84532V30.884C5.15721 30.884 4.58936 30.3228 4.58936 29.6281C4.58936 28.9333 5.15053 28.3654 5.84532 28.3654H7.93636V20.0349H7.28859C6.85435 20.0349 6.54704 19.7744 6.44683 19.3668L6.05935 17.7368C5.78544 17.6499 5.5249 17.5497 5.29776 17.4295L3.8681 18.3046C3.5207 18.5251 3.09982 18.485 2.79919 18.1844L1.85054 17.229C1.54991 16.9284 1.50983 16.4875 1.73029 16.1401L2.60545 14.7305C2.4852 14.49 2.37831 14.2428 2.29814 14.0023L0.668065 13.6014C0.247184 13.4946 0 13.1872 0 12.7597V11.4236C0 10.9893 0.247184 10.682 0.668065 10.5818L2.2781 10.181C2.37831 9.90705 2.4852 9.65318 2.58541 9.44608L1.73029 7.99638C1.50983 7.62895 1.52319 7.22811 1.8305 6.94084L2.79919 5.97882C3.09982 5.69156 3.50066 5.63143 3.84805 5.83853L5.28439 6.72706C5.51154 6.60013 5.78544 6.49323 6.05267 6.40639L6.44015 4.76963C6.54036 4.36211 6.85435 4.10156 7.28191 4.10156H8.65144C9.08568 4.10156 9.39299 4.36211 9.4932 4.76963L9.89404 6.42643C10.1613 6.51328 10.4218 6.61349 10.6423 6.73374L12.092 5.84521C12.4394 5.62475 12.8402 5.69156 13.1408 5.97214L14.1095 6.93416C14.4168 7.22143 14.4302 7.62226 14.2097 7.9897L13.3613 9.4394C13.4615 9.6465 13.5617 9.89369 13.6619 10.1743ZM5.54494 12.0515C5.54494 13.381 6.64057 14.4967 7.97002 14.4967C9.31283 14.4967 10.4085 13.381 10.4085 12.0515C10.4085 10.7221 9.29946 9.62646 7.97002 9.62646C6.64057 9.62646 5.54494 10.7221 5.54494 12.0515ZM23.6827 29.5078C23.6827 30.2694 24.2238 30.8907 25.0655 30.8907H33.6101C34.4452 30.8907 34.9997 30.2694 34.9997 29.5078C34.9997 29.2673 34.9395 29.0468 34.8126 28.8264L30.5303 21.177C30.2631 20.7027 29.8222 20.4756 29.3478 20.4756C28.8735 20.4756 28.3992 20.7027 28.1453 21.177L23.8697 28.8264C23.7428 29.0468 23.6827 29.274 23.6827 29.5078ZM30.0025 26.3479C29.9825 26.7287 29.722 26.9825 29.3345 26.9825C28.9604 26.9825 28.6931 26.722 28.6731 26.3479L28.5929 23.6021C28.5862 23.1679 28.8802 22.8606 29.3345 22.8606C29.7888 22.8606 30.0894 23.1612 30.0827 23.6021L30.0025 26.3479ZM30.2297 28.5191C30.223 29.0068 29.8355 29.3942 29.3345 29.3942C28.8401 29.3942 28.446 29.0001 28.446 28.5191C28.446 28.0381 28.8334 27.6506 29.3345 27.6506C29.8355 27.6506 30.2297 28.0447 30.2297 28.5191Z" fill="#4D4D4D"/>
</svg>
