<svg viewBox="0 0 35 35" fill="none" xmlns="http://www.w3.org/2000/svg">
<path fill-rule="evenodd" clip-rule="evenodd" d="M5.19075 14.1291C5.27655 13.8545 5.43099 13.6028 5.63691 13.3969C5.97438 13.0652 6.43198 12.8821 6.90674 12.8821C7.3815 12.8821 7.83909 13.0709 8.17657 13.3969C8.38821 13.6028 8.53693 13.8545 8.62273 14.1291V14.0318H12.9928V14.1291C13.0786 13.8545 13.233 13.6028 13.4389 13.3969C13.7764 13.0652 14.234 12.8821 14.7088 12.8821C15.1835 12.8821 15.6411 13.0709 15.9786 13.3969C16.1903 13.6028 16.339 13.8545 16.4248 14.1291V14.0318H17.8319C17.9177 14.0318 17.9863 13.9632 17.9863 13.8774C17.9863 13.7916 17.9177 13.723 17.8319 13.723H17.2084V10.3596C17.2084 10.1137 17.1112 9.87914 16.9338 9.70754L15.0463 7.85427C14.8747 7.68267 14.6344 7.58543 14.3827 7.58543H12.5238V5.82368C12.5238 5.52624 12.2778 5.286 11.9746 5.286H4.17259C3.86944 5.286 3.62348 5.52624 3.62348 5.82368V13.4884C3.62348 13.7859 3.86944 14.0261 4.17259 14.0261H5.18503V14.1234L5.19075 14.1291ZM12.5295 7.90003H14.6516L16.9052 10.1137V11.4293H12.5352V7.90003H12.5295ZM9.25193 14.6439H12.375C12.375 15.9137 13.4218 16.9433 14.7145 16.9433C16.0072 16.9433 17.054 15.9137 17.054 14.6439H17.8319C18.2609 14.6439 18.6155 14.3007 18.6155 13.8774C18.6155 13.4541 18.2666 13.1109 17.8319 13.1109V10.3653C17.8319 9.95922 17.6717 9.56454 17.3743 9.27854L15.4867 7.42527C15.195 7.13927 14.7946 6.97912 14.3827 6.97912H13.1472V5.8294C13.1472 5.19448 12.621 4.67969 11.9746 4.67969H4.17259C3.52624 4.67969 3 5.19448 3 5.8294V13.4942C3 14.1291 3.52624 14.6439 4.17259 14.6439H4.56155C4.56155 15.9137 5.60831 16.9433 6.90102 16.9433C8.19373 16.9433 9.24049 15.9137 9.24049 14.6439H9.25193ZM16.2761 10.3653V10.8115H13.1529V8.51207H14.3885L16.2761 10.3653ZM6.08306 13.8316C5.86571 14.049 5.73987 14.3407 5.73987 14.6439C5.73987 14.947 5.86571 15.2388 6.08306 15.4561C6.30042 15.6735 6.59786 15.7936 6.91246 15.7936C7.22706 15.7936 7.51878 15.6735 7.74186 15.4561C7.95921 15.2388 8.08505 14.947 8.08505 14.6439C8.08505 14.3407 7.95921 14.049 7.74186 13.8316C7.5245 13.6143 7.22706 13.4942 6.91246 13.4942C6.59786 13.4942 6.30614 13.6143 6.08306 13.8316ZM15.5439 13.8316C15.3265 13.6143 15.0234 13.4942 14.7145 13.4942C14.4056 13.4942 14.1082 13.6143 13.8851 13.8316C13.6677 14.049 13.5419 14.3407 13.5419 14.6439C13.5419 14.947 13.6677 15.2388 13.8851 15.4561C14.1025 15.6735 14.3999 15.7936 14.7145 15.7936C15.0291 15.7936 15.3208 15.6735 15.5439 15.4561C15.7613 15.2388 15.8871 14.947 15.8871 14.6439C15.8871 14.3407 15.7613 14.049 15.5439 13.8316Z" fill="#4D4D4D"/>
<path d="M27.2299 29.8115C31.5428 28.2843 32.9899 24.7951 31.3311 20.2935L30.6333 18.423C30.0098 16.7356 28.7629 15.952 27.7733 16.3066C27.5445 16.3867 27.4587 16.564 27.5331 16.7871L27.8362 17.5994C27.9621 17.954 27.8477 18.2114 27.636 18.2915C27.3958 18.3716 27.1441 18.2629 27.0125 17.8968L26.8123 17.3591C26.4291 16.3524 25.5196 15.912 24.5987 16.238C24.1697 16.381 24.0324 16.6327 24.1697 16.9988L24.5873 18.097C24.7246 18.4631 24.6102 18.709 24.3871 18.7777C24.1468 18.8578 23.8952 18.7605 23.7636 18.3887L23.3861 17.3591C22.9685 16.2266 22.0819 15.912 21.1839 16.2266C20.7778 16.3696 20.6291 16.6441 20.7549 16.9816L21.5671 19.1724C21.7044 19.527 21.5786 19.7729 21.3669 19.853C21.1267 19.9331 20.875 19.8244 20.7435 19.4584L18.0608 12.2626C17.7805 11.519 17.0998 11.2159 16.4535 11.439C15.7671 11.6906 15.4639 12.3427 15.7328 13.0749L19.6567 23.5481C19.7482 23.7941 19.6338 23.9771 19.4793 24.0286C19.3306 24.0801 19.1762 24.04 18.976 23.8341L16.3562 21.0885C15.9501 20.6595 15.504 20.528 15.0006 20.711C14.2913 20.9684 13.9996 21.5976 14.2284 22.1982C14.3028 22.4099 14.4286 22.5929 14.543 22.7359L17.9235 26.8371C20.7549 30.2577 23.9867 30.9612 27.2242 29.8115H27.2299Z" fill="#4D4D4D"/>
</svg>
