<svg viewBox="0 0 33 33" fill="none" xmlns="http://www.w3.org/2000/svg">
<path d="M6.30406 29H26.6804C28.6784 29 30 27.505 30 25.6813C30 25.1099 29.8601 24.5698 29.5491 24.0454L19.3415 5.68284C18.704 4.5479 17.6234 4 16.5194 4C15.4155 4 14.2571 4.5479 13.6507 5.68284L3.45091 24.0454C3.14771 24.5698 3 25.1099 3 25.6813C3 27.505 4.29053 29 6.29629 29H6.30406ZM16.4883 19.6152C15.5943 19.6152 14.9568 18.9969 14.9102 18.0967L14.7236 11.5141C14.7003 10.4731 15.431 9.73732 16.4883 9.73732C17.5456 9.73732 18.2997 10.4496 18.2764 11.5141L18.0898 18.0967C18.0432 18.9969 17.4057 19.6152 16.4883 19.6152ZM16.4883 25.3995C15.3144 25.3995 14.3737 24.4759 14.3737 23.294C14.3737 22.1121 15.3377 21.212 16.4883 21.212C17.6389 21.212 18.6263 22.159 18.6263 23.294C18.6029 24.4759 17.6856 25.3995 16.4883 25.3995Z" fill="#4D4D4D"/>
</svg>
