<svg width="17" height="12" viewBox="0 0 17 12" fill="none" xmlns="http://www.w3.org/2000/svg">
<path d="M12.1442 6.57666C10.853 6.57666 9.80591 7.62378 9.80591 8.91495C9.80591 10.2061 10.853 11.2532 12.1442 11.2532C13.4354 11.2532 14.4825 10.2082 14.4825 8.91495C14.4825 7.6217 13.4354 6.57666 12.1442 6.57666ZM12.1442 9.93077C11.5831 9.93077 11.1284 9.47605 11.1284 8.91495C11.1284 8.35384 11.5831 7.89912 12.1442 7.89912C12.7053 7.89912 13.16 8.35384 13.16 8.91495C13.16 9.47605 12.7053 9.93077 12.1442 9.93077Z" fill="white"/>
<path d="M4.75997 6.57666C3.4688 6.57666 2.42169 7.62378 2.42169 8.91495C2.42169 10.2061 3.4688 11.2532 4.75997 11.2532C6.05113 11.2532 7.09825 10.2082 7.09825 8.91495C7.09825 7.6217 6.05113 6.57666 4.75997 6.57666ZM4.75997 9.93077C4.19886 9.93077 3.74414 9.47605 3.74414 8.91495C3.74414 8.35384 4.19886 7.89912 4.75997 7.89912C5.32107 7.89912 5.77579 8.35384 5.77579 8.91495C5.77579 9.47605 5.32107 9.93077 4.75997 9.93077Z" fill="white"/>
<path d="M14.814 3.79632C14.0881 3.60651 13.6709 3.48761 13.3852 2.93694L12.4298 1.00332C12.1441 0.452644 11.4036 0 10.782 0H8.94638C8.94638 0 8.6794 0.00417585 8.354 0.00417585H7.24013C6.91473 0.00417585 6.64773 0.271169 6.64773 0.596568V3.41669C6.52883 3.65448 6.28479 3.82135 6.00111 3.82135H0.550678C0.225279 3.82135 0 4.08 0 4.40749V8.4416C0 8.74405 0.229448 8.99436 0.521472 9.02982V9.03399H2.18602C2.18602 8.99436 2.18393 8.95473 2.18393 8.9151C2.18393 7.49461 3.33951 6.33902 4.75791 6.33902C6.17632 6.33902 7.33399 7.49461 7.33399 8.9151C7.33399 8.95473 7.33399 8.99436 7.33191 9.03399H9.3448C9.40946 9.03399 9.47203 9.02773 9.53252 9.0173C9.53252 8.98184 9.53043 8.94847 9.53043 8.91301C9.53043 7.48835 10.6902 6.32859 12.1149 6.32859C12.3839 6.32859 12.6447 6.37031 12.8887 6.44749C13.9463 6.76871 14.7201 7.75117 14.7201 8.91301C14.7201 8.95264 14.7201 8.99227 14.718 9.03191H15.8715C16.491 9.03191 17 8.52503 17 7.90344V5.75706C17 3.95068 15.4189 3.95068 14.8161 3.79423L14.814 3.79632ZM8.94638 3.6962V0.786385H10.3815C10.9342 0.786385 11.5934 1.18688 11.8479 1.67915L12.6968 3.4C12.7594 3.5189 12.8282 3.61693 12.9075 3.6962H8.94638Z" fill="white"/>
</svg>
