<?xml version="1.0" encoding="UTF-8" standalone="no" ?>
<!DOCTYPE svg PUBLIC "-//W3C//DTD SVG 1.1//EN" "http://www.w3.org/Graphics/SVG/1.1/DTD/svg11.dtd">
<svg viewBox="0 0 22 23" fill="none" xmlns="http://www.w3.org/2000/svg">
<path d="M2.09376 18.5433H19.6814C20.8044 18.5433 21.503 17.942 21.503 17.04C21.503 15.9082 20.433 14.9266 19.4427 13.9804C18.7353 13.2996 18.5319 11.8936 18.4258 10.6909C18.3904 9.99237 18.3374 9.32032 18.249 8.67479C17.6742 8.91355 17.0375 9.05503 16.3744 9.05503C13.4298 9.05503 11.0247 6.69402 11.0247 3.80244C11.0247 2.47602 11.5464 1.26457 12.3776 0.344921C11.9354 0.106167 11.4314 -0.00878906 10.8832 -0.00878906C9.25617 -0.00878906 8.06243 1.07887 7.61147 2.5114C4.74651 3.52831 3.57046 6.32262 3.41129 10.293C3.27866 11.7079 3.09296 13.2553 2.32367 13.9893C1.33331 14.9266 0.272217 15.9082 0.272217 17.0489C0.272217 17.942 0.953086 18.5521 2.09376 18.5521V18.5433ZM10.892 22.9824C12.8285 22.9824 14.2522 21.6206 14.3936 20.0466H7.38156C7.52304 21.6206 8.94668 22.9824 10.892 22.9824Z" fill="#4D4D4D"/>
<path d="M16.3832 7.52531C18.4523 7.52531 20.1855 5.83634 20.1855 3.80251C20.1855 1.76868 18.4523 0.0797119 16.3832 0.0797119C14.3141 0.0797119 12.5809 1.75099 12.5809 3.80251C12.5809 5.85403 14.2875 7.52531 16.3832 7.52531Z" fill="#F11900"/>
</svg>
