<svg viewBox="0 0 16 16" fill="none" xmlns="http://www.w3.org/2000/svg">
<path d="M3.82959 7.49609H5.82471C6.82666 7.49609 7.41553 6.90723 7.41553 5.87891V3.94531C7.41553 2.91699 6.82666 2.32812 5.82471 2.32812H3.82959C2.83643 2.32812 2.23877 2.91699 2.23877 3.94531V5.87891C2.23877 6.90723 2.83643 7.49609 3.82959 7.49609ZM10.1753 7.49609H12.1704C13.1724 7.49609 13.7612 6.90723 13.7612 5.87891V3.94531C13.7612 2.91699 13.1724 2.32812 12.1704 2.32812H10.1753C9.17334 2.32812 8.58447 2.91699 8.58447 3.94531V5.87891C8.58447 6.90723 9.17334 7.49609 10.1753 7.49609ZM4.04053 6.14258C3.7417 6.14258 3.60107 5.98438 3.60107 5.67676V4.13867C3.60107 3.83105 3.7417 3.67285 4.04053 3.67285H5.61377C5.90381 3.67285 6.0708 3.83105 6.0708 4.13867V5.67676C6.0708 5.98438 5.90381 6.14258 5.61377 6.14258H4.04053ZM10.3774 6.14258C10.0874 6.14258 9.93799 5.98438 9.93799 5.67676V4.13867C9.93799 3.83105 10.0874 3.67285 10.3774 3.67285H11.9595C12.2495 3.67285 12.4077 3.83105 12.4077 4.13867V5.67676C12.4077 5.98438 12.2495 6.14258 11.9595 6.14258H10.3774ZM3.82959 13.666H5.82471C6.82666 13.666 7.41553 13.0684 7.41553 12.04V10.1152C7.41553 9.08691 6.82666 8.48926 5.82471 8.48926H3.82959C2.83643 8.48926 2.23877 9.08691 2.23877 10.1152V12.04C2.23877 13.0684 2.83643 13.666 3.82959 13.666ZM10.1753 13.666H12.1616C13.1636 13.666 13.7612 13.0684 13.7612 12.04V10.1152C13.7612 9.08691 13.1636 8.48926 12.1616 8.48926H10.1753C9.17334 8.48926 8.57568 9.08691 8.57568 10.1152V12.04C8.57568 13.0684 9.17334 13.666 10.1753 13.666ZM4.04053 12.3125C3.7417 12.3125 3.60107 12.1543 3.60107 11.8379V10.3086C3.60107 10.001 3.7417 9.84277 4.04053 9.84277H5.61377C5.90381 9.84277 6.0708 10.001 6.0708 10.3086V11.8379C6.0708 12.1543 5.90381 12.3125 5.61377 12.3125H4.04053Z" fill="#4D4D4D"/>
</svg>
