<svg width="7" height="10" viewBox="0 0 7 10" fill="none" xmlns="http://www.w3.org/2000/svg">
<path d="M1.57063 2.07575C1.22938 1.71584 1.22938 1.12984 1.57063 0.769931C1.91188 0.410023 2.4675 0.410023 2.80875 0.769931C3.15 1.12984 3.15 1.71584 2.80875 2.07575C2.46312 2.44027 1.91188 2.44027 1.57063 2.07575ZM0.875 6.96219V2.80941H0V6.96219C0 8.23571 0.98 9.26929 2.1875 9.26929H4.8125V8.34645H2.1875C1.46125 8.34645 0.875 7.72815 0.875 6.96219ZM7 8.84017L4.78188 6.50077H3.28125V4.80274C3.89375 5.33338 4.85625 5.79941 5.6875 5.79941V4.80274C4.96125 4.81197 4.10812 4.40131 3.64437 3.86145L3.03188 3.14624C2.94875 3.04935 2.84375 2.97091 2.73 2.91553C2.60312 2.85094 2.45875 2.80941 2.31 2.80941H2.29688C1.75437 2.80941 1.3125 3.27544 1.3125 3.8476V6.50077C1.3125 7.26673 1.89875 7.88503 2.625 7.88503H4.84312L6.37437 9.5L7 8.84017Z" fill="#505050"/>
</svg>
