<svg viewBox="0 0 33 33" fill="none" xmlns="http://www.w3.org/2000/svg">
<path d="M5 27.0476C5 26.5317 5.4392 26.0952 5.96624 26.0952H6.75681V6.76984C6.75681 4.96825 7.73103 4 9.54374 4H18.192C20.0047 4 20.9789 4.96825 20.9789 6.76984V17.8571C22.616 17.9444 23.5822 18.9683 23.5822 20.6111V22.3095C23.5822 22.8492 23.9575 23.2063 24.5245 23.2063C25.0196 23.2063 25.355 22.8492 25.355 22.3095V16.1984H23.8617C23.3746 16.1984 22.9673 15.8095 22.9673 15.3254V11.2857C22.9673 10.7857 23.3586 10.3968 23.8617 10.3968H25.2352C24.9397 8.95238 24.1891 8.52381 23.6461 8.38095C23.2069 8.2619 22.9593 7.79365 23.0871 7.34921C23.2229 6.92857 23.694 6.6746 24.1093 6.80952C25.0515 7.09524 25.7782 7.65079 26.2733 8.47619C26.7524 9.34127 27 10.4524 27 11.7857V22.3095C27 23.8333 26.0098 24.8492 24.5245 24.8492C23.0392 24.8492 21.9691 23.8333 21.9691 22.3095V20.6349C21.9691 20 21.6018 19.5952 20.9949 19.5079V26.0873H21.7855C22.3205 26.0873 22.7517 26.5238 22.7517 27.0397C22.7517 27.5556 22.3125 28 21.7855 28H5.96624C5.43122 28 5 27.5635 5 27.0397V27.0476ZM9.951 15.4206H17.7848C18.5753 15.4206 19.0544 14.9841 19.0544 14.2698V7.06349C19.0544 6.34921 18.5753 5.9127 17.7848 5.9127H9.951C9.16044 5.9127 8.68131 6.34921 8.68131 7.06349V14.2698C8.68131 14.9841 9.16044 15.4206 9.951 15.4206Z" fill="#4D4D4D"/>
</svg>
