<svg viewBox="0 0 33 33" fill="none" xmlns="http://www.w3.org/2000/svg">
<path d="M15.8101 11.3619C16.0225 10.7656 16.1532 10.1286 16.1532 9.45065C16.1532 6.57564 13.9969 4.29688 11.2853 4.29688C8.5736 4.29688 6.40918 6.61648 6.40918 9.45882C6.41735 12.3665 8.58994 14.7269 11.2853 14.7269C12.0203 14.7269 12.7064 14.5391 13.3272 14.2205C13.9724 13.1179 14.8137 12.1541 15.802 11.3619H15.8101Z" fill="#4D4D4D"/>
<path d="M12.4201 16.2621C12.0444 16.2294 11.6769 16.1641 11.2848 16.1641C5.31428 16.1641 1.5 20.2642 1.5 23.3107C1.5 24.6094 2.42294 25.2138 4.3505 25.2138H13.7923C12.6325 23.5558 11.9382 21.5384 11.9382 19.3658C11.9382 18.2795 12.1098 17.2422 12.4201 16.2621Z" fill="#4D4D4D"/>
<path d="M22.9487 10.0639C22.9487 10.0639 22.9242 10.0639 22.916 10.0639C22.6301 10.0476 22.3933 10.0312 22.1564 10.0312C17.0108 10.0312 12.8208 14.2212 12.8208 19.3669C12.8208 24.5125 17.0108 28.7025 22.1564 28.7025C22.4096 28.7025 22.6546 28.6861 22.8997 28.6698C22.8997 28.6698 22.9323 28.6698 22.9487 28.6698C27.7431 28.2696 31.5002 24.1776 31.5002 19.3669C31.5002 14.5561 27.7431 10.4641 22.9487 10.0639ZM14.9362 16.9737C15.9735 13.8537 18.873 11.7546 22.1564 11.7546C25.4398 11.7546 28.3475 13.8537 29.3848 16.9737C29.4174 17.0717 29.4011 17.1861 29.3358 17.2759C29.2704 17.3658 29.1724 17.4148 29.0662 17.4148H15.2548C15.1486 17.4148 15.0424 17.3658 14.9852 17.2759C14.9199 17.1861 14.9035 17.0799 14.9362 16.9737ZM24.0186 20.1591C24.0186 20.935 23.5367 21.6211 22.8098 21.8907C22.7853 21.907 22.769 21.9152 22.7445 21.9233C22.7363 21.9233 22.6465 21.9478 22.6383 21.9478L22.5076 21.9805C22.3933 22.005 22.2789 22.0132 22.1646 22.0132C21.1436 22.0132 20.3105 21.1801 20.3105 20.1591C20.3105 19.9059 20.3595 19.6609 20.4575 19.4322C20.4902 19.3505 20.531 19.2688 20.5801 19.1953C20.9231 18.6318 21.5112 18.2969 22.1727 18.2969C22.2953 18.2969 22.4014 18.3132 22.5158 18.3296C22.5239 18.3296 22.5975 18.3459 22.6056 18.3541C22.6955 18.3786 22.7281 18.3867 22.7608 18.3949C22.7853 18.4031 22.8098 18.4112 22.8343 18.4276C23.5612 18.6971 24.0431 19.3832 24.0431 20.1591H24.0186ZM16.2022 23.8754C16.2022 23.8754 16.1859 23.8754 16.1695 23.8754C16.0715 23.8672 15.9817 23.8182 15.9245 23.7365C15.0179 22.4542 14.5442 20.9432 14.5442 19.3669C14.5442 19.179 14.6912 19.032 14.879 19.032H17.6887C17.8439 19.032 17.9827 19.1463 18.0154 19.2933L18.3666 20.9595C18.3993 21.1147 18.4483 21.2617 18.5055 21.4088C18.5626 21.5313 18.53 21.6783 18.432 21.7763L16.4309 23.7774C16.3656 23.8427 16.2839 23.8754 16.194 23.8754H16.2022ZM26.7221 25.4517C25.399 26.4482 23.8144 26.9791 22.1564 26.9791C20.4984 26.9791 18.922 26.4482 17.5907 25.4517C17.5172 25.3946 17.4682 25.3047 17.46 25.2067C17.46 25.1087 17.4927 25.0189 17.558 24.9453L19.6489 22.8544C19.7388 22.7646 19.8695 22.7401 19.992 22.7728C20.2452 22.8544 20.5065 22.9034 20.7679 22.9034H23.5449C23.8063 22.9034 24.0676 22.8626 24.3208 22.7728C24.4433 22.7319 24.574 22.7646 24.6639 22.8544L26.7548 24.9453C26.8201 25.0107 26.861 25.1087 26.8528 25.2067C26.8528 25.3047 26.7956 25.3946 26.7221 25.4517ZM28.3801 23.7365C28.323 23.8182 28.2331 23.8672 28.1351 23.8754C28.1269 23.8754 28.1188 23.8754 28.1024 23.8754C28.0126 23.8754 27.9309 23.8427 27.8656 23.7774L25.8645 21.7763C25.7665 21.6783 25.742 21.5313 25.791 21.4088C25.8482 21.2699 25.8972 21.1147 25.9298 20.9595L26.2811 19.3015C26.3137 19.1463 26.4526 19.0401 26.6078 19.0401H29.4174C29.6053 19.0401 29.7523 19.1872 29.7523 19.375C29.7523 20.9514 29.2704 22.4624 28.372 23.7447L28.3801 23.7365Z" fill="#4D4D4D"/>
</svg>
