<svg viewBox="0 0 33 33" fill="none" xmlns="http://www.w3.org/2000/svg">
<path d="M8.83871 21.251C8.37634 21.251 8.04301 20.9698 7.93548 20.5264L7.51613 18.7634C7.22581 18.6661 6.94624 18.5579 6.69892 18.4281L5.16129 19.3799C4.78495 19.6178 4.33333 19.5746 4.01075 19.2501L2.98925 18.2118C2.66667 17.8873 2.62366 17.4114 2.86021 17.0329L3.80645 15.5079C3.67742 15.2483 3.55914 14.9779 3.47312 14.7183L1.72043 14.2857C1.26882 14.1776 1 13.8423 1 13.3772V11.9279C1 11.4628 1.26882 11.1275 1.72043 11.0194L3.45161 10.5868C3.55914 10.2839 3.67742 10.0135 3.78495 9.78639L2.86021 8.21812C2.62366 7.81794 2.63441 7.38531 2.96774 7.07165L4.01075 6.03335C4.33333 5.71969 4.76344 5.6548 5.13978 5.88193L6.68817 6.84452C6.93548 6.70392 7.22581 6.59576 7.51613 6.49842L7.93548 4.72465C8.04301 4.28121 8.37634 4 8.83871 4H10.3118C10.7742 4 11.1075 4.28121 11.2151 4.72465L11.6452 6.52005C11.9355 6.6174 12.2151 6.72555 12.4516 6.85534L14.0108 5.89274C14.3871 5.6548 14.8172 5.73051 15.1398 6.03335L16.1828 7.07165C16.5161 7.38531 16.5269 7.81794 16.2903 8.21812L15.3763 9.78639C15.4839 10.0135 15.5914 10.2839 15.6989 10.5868L17.4301 11.0194C17.8817 11.1275 18.1505 11.4628 18.1505 11.9279V13.3772C18.1505 13.8423 17.8817 14.1776 17.4301 14.2857L15.6774 14.7183C15.5914 14.9779 15.4731 15.2483 15.3441 15.5079L16.2903 17.0329C16.5269 17.4114 16.4839 17.8873 16.1613 18.2118L15.1398 19.2501C14.8172 19.5746 14.3656 19.6178 13.9892 19.3799L12.4516 18.4281C12.2043 18.5579 11.9247 18.6661 11.6452 18.7634L11.2151 20.5264C11.1075 20.9698 10.7742 21.251 10.3118 21.251H8.83871ZM9.56989 15.2699C11.0108 15.2699 12.1935 14.0586 12.1935 12.6201C12.1935 11.1816 11.0108 9.99189 9.56989 9.99189C8.13978 9.99189 6.95699 11.1816 6.95699 12.6201C6.95699 14.0586 8.13978 15.2699 9.56989 15.2699ZM23 28C22.5914 28 22.3011 27.7512 22.2043 27.3727L21.8387 25.8477C21.6021 25.7503 21.3548 25.6746 21.1505 25.5448L19.828 26.3776C19.4946 26.5831 19.1075 26.5507 18.8172 26.2695L17.957 25.3826C17.6774 25.1014 17.6237 24.6904 17.8495 24.3659L18.6667 23.0464C18.5484 22.8301 18.4624 22.5922 18.3871 22.365L16.8602 21.9973C16.4731 21.9108 16.2366 21.6187 16.2366 21.1969V19.9748C16.2366 19.5638 16.4731 19.2717 16.8602 19.1744L18.3656 18.8067C18.4516 18.5471 18.5484 18.3091 18.6344 18.1253L17.8495 16.7841C17.6344 16.4272 17.6452 16.0595 17.9462 15.7675L18.8172 14.9022C19.1075 14.621 19.4839 14.5777 19.8065 14.7724L21.129 15.5944C21.3441 15.4754 21.6021 15.3889 21.8387 15.3024L22.2043 13.7666C22.3011 13.388 22.5914 13.1393 23 13.1393H24.2258C24.6559 13.1393 24.9462 13.388 25.043 13.7666L25.3871 15.324C25.6452 15.3889 25.8925 15.5079 26.0968 15.616L27.4301 14.7724C27.7527 14.5669 28.129 14.6318 28.4086 14.9022L29.3011 15.7675C29.6021 16.0595 29.6129 16.4272 29.3978 16.7841L28.5914 18.1253C28.6989 18.3091 28.7849 18.5471 28.871 18.8067L30.3871 19.1744C30.7742 19.2717 31 19.5638 31 19.9748V21.1969C31 21.6187 30.7742 21.9108 30.3871 21.9973L28.8602 22.365C28.7849 22.5922 28.6989 22.8301 28.5806 23.0464L29.3978 24.3659C29.6129 24.6904 29.5699 25.1014 29.2796 25.3826L28.4194 26.2695C28.129 26.5507 27.7419 26.5831 27.4194 26.3776L26.0968 25.5448C25.8817 25.6746 25.6452 25.7503 25.3871 25.8477L25.043 27.3727C24.9462 27.7512 24.6559 28 24.2258 28H23ZM23.6237 22.6571C24.7742 22.6571 25.6989 21.7161 25.6989 20.5588C25.6989 19.4123 24.7634 18.4714 23.6237 18.4714C22.4731 18.4714 21.5376 19.4123 21.5376 20.5588C21.5376 21.7161 22.4731 22.6571 23.6237 22.6571Z" fill="#4D4D4D"/>
</svg>
