<svg width="20" height="21" viewBox="0 0 20 21" fill="none" xmlns="http://www.w3.org/2000/svg">
<circle cx="9.93075" cy="10.4525" r="6.08676" fill="#FFF500"/>
<path fill-rule="evenodd" clip-rule="evenodd" d="M14.0352 14.5539C16.2923 12.3071 16.3006 8.65602 14.0539 6.39896C11.8071 4.1419 8.15602 4.13356 5.89897 6.38033C3.64191 8.6271 3.63357 12.2782 5.88034 14.5352C8.12711 16.7923 11.7782 16.8006 14.0352 14.5539ZM14.962 5.49493C17.7081 8.25356 17.6979 12.716 14.9393 15.462C12.1806 18.2081 7.71822 18.1979 4.97217 15.4393C2.22611 12.6806 2.23631 8.21821 4.99493 5.47216C7.75356 2.72611 12.216 2.73631 14.962 5.49493ZM9.95937 13.8262C9.60552 13.8254 9.31932 13.5379 9.32012 13.1841L9.32897 9.29419L7.70071 10.915C7.44992 11.1647 7.04425 11.1637 6.79461 10.913C6.54497 10.6622 6.54589 10.2565 6.79668 10.0069L9.52119 7.29477C9.77197 7.04513 10.1776 7.04606 10.4273 7.29684L13.1394 10.0214C13.389 10.2721 13.3881 10.6778 13.1373 10.9275C12.8865 11.1771 12.4808 11.1762 12.2312 10.9254L10.6104 9.29715L10.6015 13.187C10.6007 13.5408 10.3132 13.827 9.95937 13.8262Z" fill="black"/>
</svg>
