<svg fill="none" xmlns="http://www.w3.org/2000/svg">
<path d="M12.0972 2.87635C11.3879 2.13632 10.5975 2.13348 9.83463 2.86475L1.81988 10.5471C1.05697 11.2784 1.02635 12.0682 1.73569 12.8082L3.91049 15.0688C4.61595 15.8048 5.4063 15.8076 6.16921 15.0763L14.184 7.39396C14.9469 6.66268 14.9734 5.8769 14.2679 5.14091L12.0972 2.87635ZM11.4379 3.74888L13.3682 5.76273C13.6783 6.08624 13.6664 6.43904 13.343 6.74903L5.54803 14.2208C5.22876 14.5268 4.87578 14.5237 4.56568 14.2002L2.63535 12.1864C2.32138 11.8588 2.33741 11.5021 2.65667 11.196L2.67741 11.1762L4.51859 13.097C4.61549 13.1981 4.77206 13.1954 4.8677 13.096C4.9755 12.9927 4.98036 12.8484 4.87958 12.7432L3.04642 10.8224L3.41544 10.4687L4.6093 11.7142C4.70621 11.8153 4.86278 11.8127 4.96256 11.7093C5.07036 11.606 5.07108 11.4656 4.9703 11.3605L3.78446 10.115L4.15348 9.7613L5.34734 11.0068C5.44424 11.1079 5.60082 11.1053 5.69645 11.0058C5.80425 10.9025 5.80912 10.7582 5.70834 10.653L4.5225 9.40759L4.88737 9.05784L6.08123 10.3034C6.17814 10.4045 6.33885 10.3978 6.43449 10.2984C6.54229 10.1951 6.54715 10.0507 6.44637 9.9456L5.25639 8.70413L5.62955 8.34644L6.82341 9.59195C6.92032 9.69305 7.07689 9.69039 7.17253 9.59097C7.28448 9.48366 7.28519 9.34331 7.18441 9.23817L5.99857 7.99272L6.37174 7.63503L8.21292 9.55587C8.30982 9.65697 8.4664 9.65431 8.56203 9.55489C8.66983 9.45155 8.6747 9.30723 8.57391 9.20209L6.74076 7.28132L7.10563 6.93158L8.29949 8.17709C8.39639 8.27818 8.55297 8.27553 8.65275 8.17213C8.76055 8.0688 8.76541 7.92447 8.66463 7.81933L7.47465 6.57786L7.84781 6.22017L9.04167 7.46568C9.13858 7.56678 9.29515 7.56413 9.39078 7.4647C9.49859 7.36137 9.50345 7.21704 9.40267 7.1119L8.21683 5.86646L8.5817 5.51671L9.77556 6.76223C9.87247 6.86332 10.0332 6.8567 10.1288 6.75727C10.2366 6.65393 10.2415 6.50961 10.1407 6.40447L8.95072 5.163L9.32389 4.80531L10.5177 6.05082C10.6147 6.15192 10.7712 6.14926 10.8669 6.04984C10.9788 5.94253 10.9795 5.80218 10.8787 5.69704L9.6929 4.45159L10.0619 4.09788L11.9031 6.01871C12 6.11981 12.1566 6.11716 12.2564 6.01376C12.3642 5.91042 12.3649 5.77007 12.2641 5.66493L10.4309 3.74416L10.4517 3.72429C10.7709 3.41827 11.1239 3.42133 11.4379 3.74888Z" fill="#4D4D4D"/>
</svg>
