<svg fill="none" xmlns="http://www.w3.org/2000/svg">
<path d="M17.5 30C10.6629 30 5 24.3493 5 17.5C5 10.6507 10.6507 5 17.4878 5C24.3249 5 30 10.6629 30 17.5C30 24.3371 24.3371 30 17.5 30ZM17.5 27.5416C23.0651 27.5416 27.5416 23.0651 27.5416 17.5C27.5294 11.9349 23.0528 7.47065 17.4878 7.47065C11.9227 7.47065 7.47065 11.9349 7.47065 17.5C7.47065 23.0651 11.9349 27.5416 17.5 27.5416ZM17.4878 24.3004C17.1759 24.3004 16.9313 24.0802 16.9313 23.7439V22.9244C15.225 22.7654 13.9286 21.8726 13.58 20.5761C13.5311 20.4293 13.5066 20.3009 13.5066 20.1541C13.5066 19.6832 13.8307 19.3408 14.3261 19.3408C14.7358 19.3408 15.0171 19.5609 15.1761 19.9951C15.3718 20.7106 15.9528 21.2427 16.9313 21.3894V18.1605L16.7478 18.1238C14.7297 17.6651 13.6901 16.7295 13.6901 15.17C13.6901 13.476 15.0294 12.3141 16.9313 12.1306V11.3173C16.9313 10.9809 17.1637 10.7485 17.4878 10.7485C17.8119 10.7485 18.0443 10.9809 18.0443 11.3173V12.1306C19.6526 12.3019 20.8757 13.1947 21.1999 14.4545C21.2365 14.589 21.261 14.7236 21.261 14.8642C21.261 15.3229 20.9308 15.6531 20.4477 15.6531C20.0257 15.6531 19.7566 15.4085 19.5915 15.0232C19.3591 14.2955 18.8148 13.8368 18.0443 13.6901V16.7417L18.295 16.7906C20.3987 17.1759 21.4628 18.1482 21.4628 19.8055C21.4628 21.6463 19.9951 22.7593 18.0382 22.9428V23.75C18.0382 24.0925 17.7935 24.3065 17.4817 24.3065L17.4878 24.3004ZM16.9313 16.4481V13.6778C16.0017 13.8368 15.433 14.3811 15.433 15.0599C15.433 15.7387 15.8672 16.1485 16.8518 16.4298L16.9374 16.4543L16.9313 16.4481ZM18.0443 18.4418V21.3833C19.1573 21.261 19.7138 20.6923 19.7138 19.9156C19.7138 19.2123 19.3408 18.7781 18.2767 18.4907L18.0443 18.4418Z" fill="white"/>
</svg>
