<svg viewBox="0 0 12 12" fill="none" xmlns="http://www.w3.org/2000/svg">
<path fill-rule="evenodd" clip-rule="evenodd" d="M7.76471 1.41176C7.37486 1.41176 7.05882 1.09573 7.05882 0.705882C7.05882 0.316034 7.37486 0 7.76471 0H11.2941C11.684 0 12 0.316034 12 0.705882V4.23529C12 4.62514 11.684 4.94118 11.2941 4.94118C10.9043 4.94118 10.5882 4.62514 10.5882 4.23529V2.41003L8.26384 4.73443C7.98818 5.01009 7.54124 5.01009 7.26557 4.73443C6.98991 4.45876 6.98991 4.01182 7.26557 3.73616L9.58997 1.41176H7.76471ZM3.15033 0.588234L4.82353 0.588235C5.21338 0.588235 5.52941 0.90427 5.52941 1.29412C5.52941 1.68397 5.21338 2 4.82353 2H3.17647C2.83538 2 2.62202 2.00055 2.46125 2.01368C2.30872 2.02615 2.26668 2.04633 2.25695 2.05129C2.1684 2.09641 2.09641 2.1684 2.05129 2.25695C2.04633 2.26668 2.02615 2.30872 2.01368 2.46125C2.00055 2.62202 2 2.83538 2 3.17647V4.82353C2 5.21338 1.68397 5.52941 1.29412 5.52941C0.90427 5.52941 0.588235 5.21338 0.588235 4.82353L0.588234 3.15033C0.58822 2.84326 0.588207 2.57151 0.606608 2.34629C0.626203 2.10645 0.670132 1.85794 0.793399 1.61602C0.973867 1.26183 1.26183 0.973867 1.61602 0.793399C1.85794 0.670132 2.10645 0.626203 2.34629 0.606608C2.57151 0.588207 2.84326 0.58822 3.15033 0.588234ZM10.7059 6.47059C11.0957 6.47059 11.4118 6.78662 11.4118 7.17647L11.4118 8.84969C11.4118 9.15675 11.4118 9.4285 11.3934 9.65371C11.3738 9.89355 11.3299 10.1421 11.2066 10.384C11.0261 10.7382 10.7382 11.0261 10.384 11.2066C10.1421 11.3299 9.89355 11.3738 9.65371 11.3934C9.4285 11.4118 9.15675 11.4118 8.84969 11.4118L7.17647 11.4118C6.78662 11.4118 6.47059 11.0957 6.47059 10.7059C6.47059 10.316 6.78662 10 7.17647 10H8.82353C9.16462 10 9.37798 9.99945 9.53875 9.98632C9.69128 9.97385 9.73332 9.95367 9.74305 9.94871C9.8316 9.90359 9.90359 9.8316 9.94871 9.74305C9.95367 9.73332 9.97385 9.69128 9.98632 9.53875C9.99945 9.37798 10 9.16462 10 8.82353V7.17647C10 6.78662 10.316 6.47059 10.7059 6.47059ZM1.68295e-07 7.76471C1.68295e-07 7.37486 0.316034 7.05882 0.705882 7.05882C1.09573 7.05882 1.41176 7.37486 1.41176 7.76471L1.41176 9.58997L3.73616 7.26557C4.01182 6.98991 4.45876 6.98991 4.73443 7.26557C5.01009 7.54124 5.01009 7.98818 4.73443 8.26384L2.41003 10.5882H4.23529C4.62514 10.5882 4.94118 10.9043 4.94118 11.2941C4.94118 11.684 4.62514 12 4.23529 12H0.705882C0.518671 12 0.339127 11.9256 0.206748 11.7933C0.0743695 11.6609 0 11.4813 0 11.2941L1.68295e-07 7.76471Z" fill="white"/>
</svg>
