<svg fill="none" xmlns="http://www.w3.org/2000/svg">
<path d="M7.5822 2.42894V6.42213L7.63164 7.40766L6.77132 6.4017L6.49444 6.12085C6.41533 6.04426 6.3115 5.99319 6.19283 5.99319C5.96044 5.99319 5.79728 6.16681 5.79728 6.4017C5.79728 6.52426 5.83684 6.63149 5.91595 6.70809L7.66131 8.51574C7.76514 8.62809 7.88381 8.68426 7.99753 8.68426C8.11125 8.68426 8.23486 8.62809 8.33869 8.51574L10.0841 6.70809C10.1632 6.63149 10.2027 6.52426 10.2027 6.4017C10.2027 6.16681 10.0396 5.99319 9.80717 5.99319C9.6885 5.99319 9.58467 6.04426 9.50556 6.12085L9.22868 6.4017L8.36836 7.40766L8.4178 6.42213V2.42894C8.4178 2.16851 8.22002 2 7.99753 2C7.77997 2 7.5822 2.16851 7.5822 2.42894ZM3.23115 12.1515H6.38566V13.0757H6.36588C6.11867 13.0757 5.91595 13.2851 5.91595 13.5404C5.91595 13.7906 6.11867 14 6.36588 14H9.63412C9.88133 14 10.0841 13.7906 10.0841 13.5404C10.0841 13.2851 9.88133 13.0757 9.63412 13.0757H9.61434V12.1515H12.7639C13.5352 12.1515 14 11.6766 14 10.88V4.72681C14 3.93021 13.5352 3.45532 12.7639 3.45532H9.13473V4.43064H12.7095C12.9221 4.43064 13.0507 4.56851 13.0507 4.78298V9.57787C13.0507 9.73617 12.9864 9.79234 12.843 9.79234H3.15698C3.0136 9.79234 2.94932 9.73617 2.94932 9.57787V4.78298C2.94932 4.56851 3.07787 4.43064 3.29048 4.43064H6.86032V3.45532H3.23115C2.46477 3.45532 2 3.93021 2 4.72681V10.88C2 11.6766 2.46477 12.1515 3.23115 12.1515Z" fill="#4D4D4D"/>
</svg>
