<svg fill="none" xmlns="http://www.w3.org/2000/svg">
<path fill-rule="evenodd" clip-rule="evenodd" d="M1.05912 1.87643C1.16339 1.64687 1.38862 1.5 1.63637 1.5H14.3636C14.6114 1.5 14.8366 1.64687 14.9409 1.87643C15.0452 2.10599 15.0095 2.37649 14.8495 2.56972L9.90909 8.53699V13.85C9.90909 14.0753 9.79489 14.2845 9.60728 14.4029C9.41967 14.5214 9.1854 14.5321 8.98814 14.4314L6.44268 13.1314C6.22709 13.0213 6.09091 12.7962 6.09091 12.55V8.53699L1.15046 2.56972C0.990484 2.37649 0.954842 2.10599 1.05912 1.87643ZM3.00793 2.8L7.21318 7.87928C7.31033 7.99662 7.36364 8.14532 7.36364 8.299V12.1483L8.63636 12.7983V8.299C8.63636 8.14532 8.68967 7.99662 8.78682 7.87928L12.9921 2.8H3.00793Z" fill="#4D4D4D"/>
</svg>
