<svg fill="none" xmlns="http://www.w3.org/2000/svg">
<path d="M4.6 5.5625C3.44063 5.5625 2.5 6.48108 2.5 7.61328V21.2852C2.5 22.4174 3.44063 23.3359 4.6 23.3359H5.3C5.3 25.6003 7.18125 27.4375 9.5 27.4375C11.8188 27.4375 13.7 25.6003 13.7 23.3359H19.3C19.3 25.6003 21.1812 27.4375 23.5 27.4375C25.8188 27.4375 27.7 25.6003 27.7 23.3359H29.1C29.8744 23.3359 30.5 22.725 30.5 21.9688C30.5 21.2125 29.8744 20.6016 29.1 20.6016V15.7011C29.1 14.9747 28.8069 14.2783 28.2819 13.7656L24.9 10.463C24.375 9.95032 23.6619 9.66406 22.9181 9.66406H20.7V7.61328C20.7 6.48108 19.7594 5.5625 18.6 5.5625H4.6ZM20.7 12.3984H22.9181L26.3 15.7011V16.5H20.7V12.3984ZM7.4 23.3359C7.4 22.792 7.62125 22.2704 8.01508 21.8858C8.4089 21.5012 8.94305 21.2852 9.5 21.2852C10.057 21.2852 10.5911 21.5012 10.9849 21.8858C11.3788 22.2704 11.6 22.792 11.6 23.3359C11.6 23.8798 11.3788 24.4015 10.9849 24.7861C10.5911 25.1707 10.057 25.3867 9.5 25.3867C8.94305 25.3867 8.4089 25.1707 8.01508 24.7861C7.62125 24.4015 7.4 23.8798 7.4 23.3359ZM23.5 21.2852C24.057 21.2852 24.5911 21.5012 24.9849 21.8858C25.3787 22.2704 25.6 22.792 25.6 23.3359C25.6 23.8798 25.3787 24.4015 24.9849 24.7861C24.5911 25.1707 24.057 25.3867 23.5 25.3867C22.943 25.3867 22.4089 25.1707 22.0151 24.7861C21.6213 24.4015 21.4 23.8798 21.4 23.3359C21.4 22.792 21.6213 22.2704 22.0151 21.8858C22.4089 21.5012 22.943 21.2852 23.5 21.2852Z" fill="#4D4D4D"/>
</svg>
