<svg fill="none" xmlns="http://www.w3.org/2000/svg">
<path d="M3 15.7922C3 15.4647 3.14379 15.1254 3.43138 14.868L14.957 4.63173C15.9193 3.78942 17.1139 3.78942 18.0651 4.63173L23.3302 9.32288V7.26392C23.3302 6.73748 23.662 6.39822 24.1598 6.39822H25.653C26.1397 6.39822 26.4605 6.73748 26.4605 7.26392V12.0955L29.5686 14.868C29.8562 15.1137 30 15.4296 30 15.8273C30 16.4942 29.5133 16.9153 28.8718 16.9153C28.5289 16.9153 28.2302 16.7164 27.9648 16.4825L16.9812 6.73748C16.6825 6.45672 16.3396 6.45672 16.041 6.73748L5.04629 16.4825C4.78083 16.7164 4.48218 16.9153 4.13929 16.9153C3.43138 16.9153 3 16.4006 3 15.7922ZM6.58378 26.3093V17.3832L15.8197 9.1942C16.2401 8.81984 16.7599 8.80814 17.1803 9.1942L26.4273 17.3949V26.3093C26.4273 27.9939 25.4318 29 23.7948 29H9.20524C7.57927 29 6.58378 27.9939 6.58378 26.3093ZM19.3925 26.6369V19.1146C19.3925 18.5648 19.0606 18.2139 18.5408 18.2139H14.4592C13.9394 18.2139 13.5965 18.5648 13.5965 19.1146V26.6369H19.3925Z" fill="#4D4D4D"/>
</svg>
