<svg fill="none" xmlns="http://www.w3.org/2000/svg">
<path d="M4.34709 8.05816V3.31679C4.34709 2.12591 4.97186 1.5 6.17636 1.5H8.88931C9.59287 1.5 9.98124 1.61078 10.454 2.08159L13.409 5.03941C13.8987 5.52684 14 5.88134 14 6.65126V11.6751C14 12.866 13.3752 13.4919 12.1707 13.4919H8.07317C8.2758 13.1651 8.42214 12.794 8.48968 12.4063H12.075C12.621 12.4063 12.8968 12.1238 12.8968 11.6086V6.79527H9.86304C9.06379 6.79527 8.66417 6.41308 8.66417 5.62101V2.58564H6.26642C5.72045 2.58564 5.45028 2.87367 5.45028 3.38326V8.05816C5.25891 8.03046 5.0788 8.01385 4.89306 8.01385C4.70732 8.01385 4.5272 8.03046 4.34709 8.05816ZM9.6379 5.51576C9.6379 5.74286 9.73358 5.84257 9.96435 5.84257H12.7448L9.6379 2.73519V5.51576ZM4.89869 14.5C3.31144 14.5 2 13.215 2 11.6474C2 10.091 3.31144 8.80038 4.89869 8.80038C6.48593 8.80038 7.79737 10.0854 7.79737 11.6474C7.79737 13.2094 6.47467 14.5 4.89869 14.5ZM4.89869 13.4587C5.12946 13.4587 5.28143 13.3036 5.28143 13.082V12.0296H6.35084C6.58161 12.0296 6.73358 11.8801 6.73358 11.653C6.73358 11.4203 6.58161 11.2708 6.35084 11.2708H5.28143V10.2239C5.28143 9.9968 5.12946 9.84725 4.89869 9.84725C4.66792 9.84725 4.51595 10.0023 4.51595 10.2239V11.2708H3.44653C3.22139 11.2708 3.06379 11.4203 3.06379 11.653C3.06379 11.8801 3.22139 12.0296 3.44653 12.0296H4.51595V13.082C4.51595 13.3036 4.66792 13.4587 4.89869 13.4587Z" fill="#4D4D4D"/>
</svg>
