<svg viewBox="0 0 26 25" fill="none" xmlns="http://www.w3.org/2000/svg">
<g id="icon_logout">
<path id="power.circle.fill" d="M13.0029 25C6.16605 25 0.50293 19.349 0.50293 12.5C0.50293 5.66312 6.15395 0 12.9908 0C19.8398 0 25.5029 5.66312 25.5029 12.5C25.5029 19.349 19.8398 25 13.0029 25ZM13.015 12.8509C13.5717 12.8509 13.9589 12.4516 13.9589 11.8829V6.59487C13.9589 6.02614 13.5717 5.62682 13.015 5.62682C12.4584 5.62682 12.0712 6.02614 12.0712 6.59487V11.8829C12.0712 12.4516 12.4584 12.8509 13.015 12.8509ZM13.015 19.0223C16.5847 19.0223 19.5373 16.0576 19.5373 12.5C19.5373 10.7454 18.7871 9.0029 17.4923 7.80494C16.5484 6.89739 15.2416 8.20426 16.1854 9.14811C17.1051 10.0194 17.6375 11.2052 17.6375 12.5C17.6375 15.0774 15.5804 17.1346 13.015 17.1346C10.4497 17.1346 8.39257 15.0774 8.39257 12.5C8.39257 11.2052 8.9129 10.0194 9.84465 9.13601C10.7885 8.19216 9.46953 6.88529 8.53778 7.80494C7.24301 8.9908 6.49277 10.7333 6.49277 12.5C6.49277 16.0576 9.44533 19.0223 13.015 19.0223Z" fill="#302F2F"/>
</g>
</svg>
