<svg fill="none" xmlns="http://www.w3.org/2000/svg">
<path d="M5.79162 26.657C3.94529 24.8443 3.95572 22.4104 5.77076 20.6486C7.08509 19.3756 8.61848 18.8766 11.0177 17.3389L5.15531 11.6258C3.62192 10.1186 3.62192 8.51973 5.11359 7.05327L6.58439 5.61735C8.08649 4.15089 9.74505 4.15089 11.2784 5.65809L17.0365 11.3101C16.4836 9.33443 16.9739 7.16529 18.5282 5.65809C20.4579 3.75373 23.5351 3.4584 25.9552 4.93504L24.7765 6.08581L23.097 7.72539C22.8258 7.99017 22.8467 8.30587 23.1283 8.59101L24.3071 9.74178C24.5887 10.0167 24.9121 10.0066 25.1833 9.75196L26.8731 8.10219L28.0414 6.95143C29.554 9.33443 29.2515 12.3386 27.3112 14.2328C25.5275 15.9742 22.8571 16.3409 20.6144 15.3632C20.072 15.8928 19.5817 16.3918 19.1332 16.8704L23.7646 21.3818L24.8078 21.4429C25.1728 21.4633 25.5484 21.6975 25.757 22.054L27.6763 25.3942C27.8641 25.7405 27.9058 26.0358 27.6763 26.2598L26.2681 27.6347C26.0282 27.8689 25.7361 27.8281 25.3919 27.6448L21.9496 25.7507C21.5845 25.5572 21.3446 25.1906 21.3237 24.8545L21.2611 23.8259L16.8383 19.508C14.001 23.0723 13.5837 25.048 11.9356 26.6774C10.1414 28.4392 7.64838 28.4494 5.79162 26.657ZM21.887 9.477C21.0838 8.70304 21.0525 7.73558 21.8244 6.98198L23.2326 5.60717C21.9392 5.44423 20.604 5.8414 19.6652 6.76812C17.944 8.41789 18.017 11.1981 19.8216 12.9598C21.6367 14.7115 24.4635 14.7929 26.1638 13.1228C27.1235 12.1961 27.5303 10.8925 27.353 9.60939L25.9239 11.0046C25.1833 11.7276 24.1923 11.7072 23.3995 10.9435L21.887 9.477ZM12.7701 12.3997C12.9579 12.5932 13.2917 12.5627 13.4481 12.3997C13.6463 12.1961 13.6568 11.8906 13.4586 11.7072L9.45298 7.80686C9.26522 7.61337 8.95228 7.62356 8.77495 7.80686C8.57676 7.99017 8.58719 8.2855 8.77495 8.46881L12.7701 12.3997ZM11.3515 13.7542C11.5497 13.9477 11.8626 13.9477 12.0504 13.7542C12.2381 13.5709 12.2485 13.2857 12.0504 13.0922L8.03433 9.17149C7.86743 8.99836 7.54406 8.98818 7.3563 9.17149C7.16854 9.36498 7.15811 9.67049 7.3563 9.86398L11.3515 13.7542ZM18.6846 14.0597C18.4969 13.8866 18.33 13.7033 18.1735 13.5098C11.0907 20.2311 9.3591 19.4978 6.95992 21.8401C5.86464 22.9094 5.82291 24.3555 6.98078 25.4961C8.13864 26.6265 9.63031 26.5857 10.7256 25.5164C13.1248 23.1742 12.3633 21.4837 19.2583 14.5587C19.0601 14.4059 18.8619 14.243 18.6846 14.0597ZM8.82711 24.9258C8.13865 24.9258 7.58579 24.386 7.58579 23.7139C7.58579 23.052 8.13865 22.502 8.82711 22.502C9.51557 22.502 10.0684 23.052 10.0684 23.7139C10.0684 24.386 9.51557 24.9258 8.82711 24.9258Z" fill="#4D4D4D"/>
</svg>
