<svg fill="none" xmlns="http://www.w3.org/2000/svg">
<path d="M13.2863 24.5663V5C13.5598 5.06984 13.8675 5.20951 14.1866 5.40739L19.5199 8.70142V28C19.2464 27.9302 19.0185 27.8254 18.7564 27.6857L13.2863 24.5663ZM4.5 26.1377V10.4823C4.5 9.60931 4.85328 8.99241 5.61681 8.56174L10.7906 5.54706C11.0869 5.37247 11.3718 5.23279 11.6339 5.13968V24.8573L7.0641 27.3831C6.67664 27.5926 6.34615 27.6974 6.01567 27.6974C5.11538 27.6974 4.5 27.1503 4.5 26.1377ZM21.1838 27.9534V8.29403L25.8105 5.6751C26.2094 5.45395 26.5741 5.33755 26.916 5.33755C27.8732 5.33755 28.5 5.86134 28.5 6.89727V22.4828C28.5 23.3674 28.1467 23.9843 27.3604 24.4266L21.5712 27.7672C21.4459 27.8487 21.3091 27.9069 21.1838 27.9534Z" fill="#4D4D4D"/>
</svg>
