<svg fill="none" xmlns="http://www.w3.org/2000/svg">
<path d="M15.3577 13.4343V14.4745C15.7193 14.3696 16.1074 14.3171 16.5044 14.3171C16.9277 14.3171 17.307 14.3608 17.651 14.4308V13.3905C17.3423 13.2857 16.9718 13.2419 16.5044 13.2419C16.0898 13.2419 15.6929 13.3119 15.3577 13.4255V13.4343Z" fill="#4D4D4D"/>
<path d="M13.0114 8.64062C12.4998 8.64062 12.0764 8.92909 11.8647 9.42735L9.83594 14.1215C10.3211 13.9029 10.8768 13.7806 11.4148 13.7806C12.438 13.7806 13.4083 14.1477 14.0875 14.7509V9.71582C14.0875 9.07769 13.6553 8.64937 13.0114 8.64937V8.64062Z" fill="#4D4D4D"/>
<path d="M21.929 24.8516H11.0708C10.5416 24.8516 10.1182 25.2799 10.1182 25.8131C10.1182 26.3463 10.5416 26.7572 11.0708 26.7572H21.929C22.4582 26.7572 22.8993 26.3289 22.8993 25.8131C22.8993 25.2974 22.4671 24.8516 21.929 24.8516Z" fill="#4D4D4D"/>
<path d="M15.3574 10.4423V11.4825C15.7191 11.3864 16.1072 11.3339 16.5041 11.3339C16.9275 11.3339 17.3068 11.3689 17.6508 11.4476V10.3986C17.3421 10.2937 16.9716 10.25 16.5041 10.25C16.0895 10.25 15.6926 10.3199 15.3574 10.4336V10.4423Z" fill="#4D4D4D"/>
<path d="M11.4235 15.0312C9.92396 15.0312 8.79492 15.9054 8.79492 17.2079C8.79492 18.5103 9.92396 19.3757 11.4235 19.3757C12.923 19.3757 14.0873 18.5016 14.0873 17.2079C14.0873 15.9141 12.923 15.0312 11.4235 15.0312Z" fill="#4D4D4D"/>
<path d="M23.1641 14.1215L21.1442 9.42735C20.9325 8.92909 20.5091 8.64937 19.9975 8.64062C19.3536 8.64062 18.9214 9.07769 18.9214 9.71582V14.7421C19.6006 14.139 20.562 13.7806 21.594 13.7806C22.1409 13.7806 22.6878 13.9029 23.1729 14.1215H23.1641Z" fill="#4D4D4D"/>
<path d="M21.594 15.0312C20.0945 15.0312 18.9302 15.9141 18.9302 17.2079C18.9302 18.5016 20.0945 19.3845 21.594 19.3845C23.0935 19.3845 24.2137 18.5016 24.2137 17.2079C24.2137 15.9141 23.0935 15.0312 21.594 15.0312Z" fill="#4D4D4D"/>
<path d="M27.0804 5.15625H5.92845C3.99673 5.15625 3 6.1178 3 8.05839V20.1827C3 22.132 3.99673 23.0848 5.92845 23.0848H27.0804C29.0033 23.0848 30 22.1233 30 20.1827V8.05839C30 6.10906 29.0033 5.15625 27.0804 5.15625ZM21.5939 20.6285C19.4152 20.6285 17.6599 19.16 17.6599 17.2019V15.5061C17.3512 15.4012 16.9807 15.3575 16.5132 15.3575C16.0987 15.3575 15.7017 15.4274 15.3665 15.541V17.1931C15.3665 19.1512 13.6024 20.6198 11.4325 20.6198C9.26266 20.6198 7.48971 19.1512 7.48971 17.1931C7.48971 16.6861 7.56909 16.2054 7.84253 15.576L10.6916 8.94127C11.1062 7.96224 11.9706 7.41153 13.0732 7.41153C14.4668 7.41153 15.3754 8.29441 15.3754 9.63184V10.235C15.737 10.1388 16.1251 10.0864 16.5221 10.0864C16.9454 10.0864 17.3247 10.1214 17.6687 10.2V9.63184C17.6687 8.30315 18.5773 7.41153 19.9709 7.41153C21.0647 7.41153 21.9291 7.97098 22.3437 8.95001L25.1927 15.5847C25.4662 16.2054 25.5456 16.7036 25.5456 17.1931C25.5456 19.16 23.7726 20.6198 21.6027 20.6198L21.5939 20.6285Z" fill="#4D4D4D"/>
</svg>
