<svg fill="none" xmlns="http://www.w3.org/2000/svg">
<path d="M3.00736 21.0096C3.00736 22.5201 4.2517 23.7534 5.77584 23.7534C6.82138 23.7534 7.74175 23.1623 8.20562 22.3085L24.6103 27.0663C24.949 28.1827 26.0019 29 27.2463 29C28.7704 29 30 27.7741 30 26.2563C30 25.1544 29.3373 24.1985 28.3875 23.7752L27.9236 13.063C28.9176 12.669 29.6245 11.6985 29.6245 10.5601C29.6245 9.04962 28.3801 7.8164 26.8707 7.8164C25.8915 7.8164 25.03 8.3272 24.5293 9.08611L15.7085 6.61238C15.6422 5.16025 14.42 4 12.9621 4C11.4306 4 10.1789 5.23322 10.1789 6.74372C10.1789 7.50992 10.5102 8.18856 11.0035 8.69206L5.95991 18.3097C5.84211 18.2732 5.73902 18.2732 5.62858 18.2732C4.17071 18.3389 3 19.5429 3 21.0096H3.00736ZM7.81538 19.1635L12.8369 9.46556C13.7205 9.54583 14.5599 9.15178 15.0458 8.47315L24.1906 11.0417C24.3158 12.0123 25.03 12.8441 25.9651 13.1652L26.3553 23.6804C25.6338 23.9066 25.03 24.4466 24.7428 25.1252L8.44123 20.3821C8.35288 19.9151 8.14671 19.5064 7.82274 19.1708L7.81538 19.1635Z" fill="#4D4D4D"/>
<path d="M12.774 17.4087L16.506 17.4233C16.5718 17.4233 16.5937 17.4307 16.5937 17.504V21.2299C16.5937 22.1027 17.6892 22.308 18.0836 21.4572L21.8814 13.2061C22.2831 12.3333 21.6038 11.7319 20.7566 12.1206L12.4964 15.9491C11.7223 16.3085 11.8829 17.4013 12.774 17.4087Z" fill="#4D4D4D"/>
</svg>
