<svg fill="none" xmlns="http://www.w3.org/2000/svg">
<path d="M8 2.5C7.82781 2.5 7.66887 2.5255 7.49669 2.551C6.9404 2.61475 6.4106 2.79325 5.94702 3.06101C4.78146 3.73677 4 4.94804 4 6.33781C4 7.15382 4.2649 7.91884 4.72848 8.5436L7.50993 13.1719C7.89404 13.6564 8.15894 13.5672 8.47682 13.1464L10.6887 9.53811L11.4834 8.23759L11.5497 8.12284C11.6159 8.02084 11.6556 7.90609 11.7086 7.77858C11.9073 7.31958 12 6.83507 12 6.33781C12 4.23403 10.1987 2.5 8 2.5ZM8.66225 8.26309C8.45033 8.32684 8.23841 8.37784 8 8.37784C6.82119 8.37784 5.88079 7.47258 5.88079 6.33781C5.88079 5.8278 6.07947 5.38155 6.38411 5.02454C6.72848 4.62928 7.21854 4.37428 7.78808 4.31053C7.86755 4.31053 7.93377 4.28503 8.01325 4.28503C9.19205 4.28503 10.1325 5.19029 10.1325 6.32506C10.1325 6.68207 10.0397 7.00082 9.86755 7.29408C9.61589 7.75308 9.19205 8.09734 8.66225 8.26309Z" fill="#4D4D4D"/>
</svg>
