<svg viewBox="0 0 16 16" fill="none" xmlns="http://www.w3.org/2000/svg">
<path d="M8.86831 5.50781C7.49191 5.50781 6.37158 6.62814 6.37158 8.00454C6.37158 9.38094 7.49191 10.5013 8.86831 10.5013C10.2447 10.5013 11.365 9.38094 11.365 8.00454C11.365 6.62814 10.2447 5.50781 8.86831 5.50781ZM10.0366 8.34064H9.2044V9.17288C9.2044 9.35693 9.05236 9.50897 8.86831 9.50897C8.68425 9.50897 8.53221 9.35693 8.53221 9.17288V8.34064H7.69997C7.51591 8.34064 7.36387 8.18859 7.36387 8.00454C7.36387 7.82048 7.51591 7.66844 7.69997 7.66844H8.53221V6.8362C8.53221 6.65215 8.68425 6.5001 8.86831 6.5001C9.05236 6.5001 9.2044 6.65215 9.2044 6.8362V7.66844H10.0366C10.2207 7.66844 10.3727 7.82048 10.3727 8.00454C10.3727 8.18859 10.2207 8.34064 10.0366 8.34064Z" fill="#4D4D4D"/>
<path d="M0.633979 10.4881C0.633979 11.3203 1.31418 12.0005 2.14642 12.0005C2.72259 12.0005 3.21873 11.6724 3.4748 11.2083L12.4294 13.8251C12.6135 14.4412 13.1896 14.8894 13.8698 14.8894C14.7021 14.8894 15.3743 14.2172 15.3743 13.3769C15.3743 12.7688 15.0142 12.2406 14.494 12.0085L14.2379 6.10283C14.7821 5.88676 15.1662 5.35061 15.1662 4.72643C15.1662 3.89418 14.486 3.21399 13.6618 3.21399C13.1256 3.21399 12.6535 3.49407 12.3814 3.91019L7.56399 2.54979C7.52398 1.74956 6.85979 1.10938 6.06756 1.10938C5.22731 1.10938 4.54712 1.78957 4.54712 2.62181C4.54712 3.04594 4.73117 3.41404 4.99525 3.69413L2.24245 8.99166C2.17843 8.97566 2.12241 8.97566 2.05839 8.97566C1.26616 9.01567 0.625977 9.67186 0.625977 10.4801L0.633979 10.4881ZM3.25874 9.4718L6.00354 4.12625C6.48368 4.16626 6.93981 3.9502 7.21189 3.57409L12.2053 4.9905C12.2694 5.52666 12.6615 5.98279 13.1736 6.15884L13.3817 11.9525C12.9896 12.0806 12.6615 12.3766 12.5014 12.7448L3.59484 10.128C3.54682 9.87192 3.43479 9.64785 3.25874 9.4558V9.4718Z" fill="#4D4D4D"/>
</svg>
