<svg fill="none" xmlns="http://www.w3.org/2000/svg">
<path d="M13.2641 4.96812L20.2004 3.61394C22.7498 3.109 24.3084 4.30251 24.3497 6.79281L24.36 7.55022C23.7201 7.16004 22.946 6.87314 22.017 6.68952L13.2641 4.96812ZM10.1263 27.1972C8.73285 26.9218 8 25.9922 8 24.4544V8.59454C8 6.80428 9.10443 5.78291 10.725 6.09277L21.759 8.26174C23.9472 8.68635 25 9.61591 25 12.0144V25.866C25 28.4825 23.6685 29.8482 21.5112 29.4235L10.1263 27.1972ZM12.1803 12.944L20.1694 14.5162C20.7165 14.608 21.0777 14.2293 21.0777 13.6784C21.0777 13.1735 20.8506 12.8981 20.4274 12.8062L12.49 11.257C11.9429 11.1537 11.5507 11.5209 11.5507 12.0718C11.5507 12.5308 11.7778 12.8751 12.1803 12.944ZM12.1803 17.6491L20.1694 19.2328C20.7165 19.3246 21.0777 18.9459 21.0777 18.3721C21.0777 17.8901 20.8506 17.6147 20.4274 17.5229L12.49 15.9736C11.9429 15.8703 11.5507 16.2376 11.5507 16.777C11.5507 17.236 11.7881 17.5688 12.1803 17.6491Z" fill="#4D4D4D"/>
</svg>
