<svg fill="none" xmlns="http://www.w3.org/2000/svg">
<path d="M8.00273 12.5C12.4803 12.5 15.5 9.06326 15.5 7.9974C15.5 6.93154 12.4749 3.5 8.00273 3.5C3.59064 3.5 0.5 6.93154 0.5 7.9974C0.5 9.06326 3.58518 12.5 8.00273 12.5ZM8.00273 11.5017C4.51347 11.5017 1.73953 8.7253 1.73953 7.9974C1.73953 7.38908 4.51347 4.49827 8.00273 4.49827C11.4865 4.49827 14.2659 7.38908 14.2659 7.9974C14.2659 8.7253 11.4865 11.5017 8.00273 11.5017ZM8.00273 10.7998C9.64088 10.7998 10.9514 9.526 10.9514 7.9974C10.9514 6.43241 9.64088 5.20017 8.00273 5.20017C6.35912 5.20017 5.04314 6.43241 5.0486 7.9974C5.05952 9.526 6.35912 10.7998 8.00273 10.7998ZM8.00273 8.90208C7.47306 8.90208 7.04168 8.49653 7.04168 7.9974C7.04168 7.49827 7.47306 7.09272 8.00273 7.09272C8.5324 7.09272 8.95832 7.49827 8.95832 7.9974C8.95832 8.49653 8.5324 8.90208 8.00273 8.90208Z" fill="#4D4D4D"/>
</svg>
