<svg fill="none" xmlns="http://www.w3.org/2000/svg">
<path d="M4.46521 11.7422C3.87887 11.7422 3.32603 11.656 3.00773 11.3284C2.68943 11.0094 2.61405 10.4405 2.61405 9.83701V5.06977C2.61405 4.44908 2.68943 3.88874 2.99936 3.55253C3.31765 3.22495 3.87887 3.13874 4.47358 3.13874H9.14755C9.73389 3.13874 10.2867 3.22495 10.605 3.55253C10.9233 3.88012 10.9987 4.44046 10.9987 5.05253V7.17322C11.183 7.14736 11.3673 7.13012 11.5599 7.13012C11.7526 7.13012 11.9285 7.14736 12.1211 7.17322V5.21633C12.1211 4.14736 12.0122 3.31977 11.4259 2.71633C10.8396 2.11288 10.0271 1.99219 8.99678 1.99219H4.6076C3.59407 2.00081 2.7732 2.1215 2.19523 2.72495C1.60889 3.32839 1.5 4.15598 1.5 5.2077V9.68184C1.5 10.7508 1.60889 11.5784 2.18686 12.1818C2.78157 12.7767 3.5857 12.8974 4.62436 12.8974H8.3183C8.12564 12.5525 7.98325 12.156 7.91624 11.7508H4.46521V11.7422ZM11.5683 14.0008C13.1598 14.0008 14.5 12.6301 14.5 10.9836C14.5 9.33701 13.1765 7.96633 11.5683 7.96633C9.96005 7.96633 8.6366 9.32839 8.6366 10.9836C8.6366 12.6387 9.96005 14.0008 11.5683 14.0008ZM11.2249 12.7508C11.116 12.7508 10.982 12.7077 10.9066 12.6129L9.82603 11.406C9.7674 11.3456 9.72552 11.2336 9.72552 11.1301C9.72552 10.8801 9.90979 10.7077 10.1276 10.7077C10.2616 10.7077 10.3621 10.768 10.4375 10.8456L11.1914 11.6991L12.6488 9.6215C12.7242 9.51805 12.8415 9.44046 12.9839 9.44046C13.2101 9.44046 13.3943 9.6215 13.3943 9.85426C13.3943 9.93184 13.3692 10.018 13.3106 10.1043L11.5515 12.6043C11.4845 12.6991 11.3589 12.7594 11.2165 12.7594L11.2249 12.7508Z" fill="#4D4D4D"/>
</svg>
