<svg width="92" height="31" viewBox="0 0 92 31" fill="none" xmlns="http://www.w3.org/2000/svg">
<g id="Capa_1" clip-path="url(#clip0_2017_171)">
<g id="Group">
<path id="Vector" d="M33.7566 23.749C33.6184 23.8141 33.3501 23.8873 33.0005 23.8873C32.1875 23.8873 31.5859 23.3751 31.5859 22.4402C31.5859 21.5052 32.1957 20.9362 33.0818 20.9362C33.4395 20.9362 33.6672 21.0093 33.7647 21.0662L33.6753 21.367C33.5371 21.302 33.3338 21.2451 33.0981 21.2451C32.4233 21.2451 31.9762 21.676 31.9762 22.432C31.9762 23.1312 32.3827 23.5865 33.0818 23.5865C33.3094 23.5865 33.5371 23.5377 33.6834 23.4645L33.7566 23.7572V23.749Z" fill="#DC3856"/>
<path id="Vector_2" d="M37.1791 22.3833C37.1791 23.3669 36.5775 23.8954 35.8459 23.8954C35.1142 23.8954 34.5532 23.31 34.5532 22.4402C34.5532 21.5296 35.1223 20.9362 35.8865 20.9362C36.6507 20.9362 37.1791 21.5378 37.1791 22.3833ZM34.9516 22.432C34.9516 23.0418 35.2849 23.5946 35.8702 23.5946C36.4556 23.5946 36.7889 23.058 36.7889 22.3995C36.7889 21.8304 36.4881 21.237 35.8784 21.237C35.2686 21.237 34.9597 21.806 34.9597 22.432H34.9516Z" fill="#DC3856"/>
<path id="Vector_3" d="M38.2603 23.8466V20.9768H38.6668L39.5855 22.4239C39.7969 22.7572 39.9676 23.0661 40.0976 23.3588C40.0651 22.9685 40.057 22.619 40.057 22.1718V20.9686H40.4066V23.8384H40.0326L39.1221 22.3832C38.9188 22.0661 38.7319 21.7328 38.5855 21.4239H38.5693C38.5936 21.7897 38.6018 22.1312 38.6018 22.6108V23.8384H38.2522L38.2603 23.8466Z" fill="#DC3856"/>
<path id="Vector_4" d="M42.2034 21.2939H41.3335V20.9768H43.4554V21.2939H42.5773V23.8466H42.2034V21.2939Z" fill="#DC3856"/>
<path id="Vector_5" d="M44.3741 21.0175C44.5611 20.9768 44.8294 20.9606 45.0814 20.9606C45.4797 20.9606 45.7318 21.0337 45.9106 21.1963C46.057 21.3264 46.1383 21.5215 46.1383 21.741C46.1383 22.1231 45.9025 22.367 45.6017 22.4727V22.489C45.8212 22.5621 45.9513 22.7735 46.0244 23.0662C46.122 23.4645 46.187 23.7409 46.2439 23.8548H45.8618C45.8131 23.7735 45.748 23.5296 45.6667 23.1719C45.5773 22.7735 45.431 22.6272 45.0895 22.6109H44.7399V23.8548H44.366V21.0256L44.3741 21.0175ZM44.7481 22.3264H45.1302C45.5285 22.3264 45.7724 22.1069 45.7724 21.7817C45.7724 21.4077 45.5041 21.2532 45.1139 21.2451C44.9351 21.2451 44.805 21.2614 44.7481 21.2776V22.3264Z" fill="#DC3856"/>
<path id="Vector_6" d="M49.7233 22.3833C49.7233 23.3669 49.1217 23.8954 48.39 23.8954C47.6584 23.8954 47.0974 23.31 47.0974 22.4402C47.0974 21.5296 47.6665 20.9362 48.4307 20.9362C49.1949 20.9362 49.7233 21.5378 49.7233 22.3833ZM47.4958 22.432C47.4958 23.0418 47.8291 23.5946 48.4144 23.5946C48.9998 23.5946 49.3331 23.058 49.3331 22.3995C49.3331 21.8304 49.0323 21.237 48.4226 21.237C47.8128 21.237 47.5039 21.806 47.5039 22.432H47.4958Z" fill="#DC3856"/>
<path id="Vector_7" d="M50.8127 20.9768H51.1867V23.5377H52.4143V23.8466H50.8209V20.9768H50.8127Z" fill="#DC3856"/>
<path id="Vector_8" d="M56.3978 22.497H55.2841V23.5295H56.5279V23.8384H54.9182V20.9686H56.471V21.2776H55.2922V22.18H56.406V22.4889L56.3978 22.497Z" fill="#DC3856"/>
<path id="Vector_9" d="M57.6092 23.8466V20.9768H58.0157L58.9344 22.4239C59.1457 22.7572 59.3164 23.0661 59.4465 23.3588C59.414 22.9685 59.4059 22.619 59.4059 22.1718V20.9686H59.7555V23.8384H59.3815L58.471 22.3832C58.2677 22.0661 58.0807 21.7328 57.9344 21.4239H57.9181C57.9425 21.7897 57.9507 22.1312 57.9507 22.6108V23.8384H57.6011L57.6092 23.8466Z" fill="#DC3856"/>
<path id="Vector_10" d="M64.9259 22.5865C64.9015 22.1881 64.8772 21.7085 64.8853 21.3508H64.869C64.7715 21.6841 64.6495 22.0418 64.5032 22.4402L63.9991 23.8303H63.7227L63.2593 22.4645C63.1211 22.0581 63.0073 21.6922 62.926 21.3508H62.9179C62.9098 21.7085 62.8854 22.1881 62.861 22.619L62.7878 23.8466H62.4382L62.6415 20.9768H63.113L63.6008 22.367C63.7227 22.7166 63.8203 23.0336 63.8935 23.3344H63.9097C63.9829 23.0418 64.0804 22.7328 64.2105 22.367L64.7227 20.9768H65.1942L65.3731 23.8466H65.0154L64.9422 22.5865H64.9259Z" fill="#DC3856"/>
<path id="Vector_11" d="M68.9826 22.3833C68.9826 23.3669 68.381 23.8954 67.6493 23.8954C66.9176 23.8954 66.3567 23.31 66.3567 22.4402C66.3567 21.5296 66.9258 20.9362 67.69 20.9362C68.4542 20.9362 68.9826 21.5378 68.9826 22.3833ZM66.7551 22.432C66.7551 23.0418 67.0884 23.5946 67.6737 23.5946C68.2591 23.5946 68.5924 23.058 68.5924 22.3995C68.5924 21.8304 68.2916 21.237 67.6818 21.237C67.0721 21.237 66.7632 21.806 66.7632 22.432H66.7551Z" fill="#DC3856"/>
<path id="Vector_12" d="M70.69 23.8466L69.7551 20.9768H70.1535L70.6006 22.3914C70.7226 22.7816 70.8283 23.1312 70.9095 23.4645H70.9177C70.999 23.1312 71.1209 22.7735 71.2429 22.3995L71.7307 20.9849H72.129L71.1047 23.8547H70.6982L70.69 23.8466Z" fill="#DC3856"/>
<path id="Vector_13" d="M73.4052 20.9768V23.8466H73.0312V20.9768H73.4052Z" fill="#DC3856"/>
<path id="Vector_14" d="M77.0719 22.5865C77.0475 22.1881 77.0232 21.7085 77.0313 21.3508H77.015C76.9175 21.6841 76.7955 22.0418 76.6492 22.4402L76.1451 23.8303H75.8687L75.4053 22.4645C75.2671 22.0581 75.1533 21.6922 75.072 21.3508H75.0639C75.0558 21.7085 75.0314 22.1881 75.007 22.619L74.9338 23.8466H74.5842L74.7875 20.9768H75.259L75.7468 22.367C75.8687 22.7166 75.9663 23.0336 76.0395 23.3344H76.0557C76.1289 23.0418 76.2264 22.7328 76.3565 22.367L76.8687 20.9768H77.3402L77.5191 23.8466H77.1614L77.0882 22.5865H77.0719Z" fill="#DC3856"/>
<path id="Vector_15" d="M79.0473 20.9768V23.8466H78.6733V20.9768H79.0473Z" fill="#DC3856"/>
<path id="Vector_16" d="M81.7709 22.497H80.6571V23.5295H81.901V23.8384H80.2913V20.9686H81.844V21.2776H80.6652V22.18H81.779V22.4889L81.7709 22.497Z" fill="#DC3856"/>
<path id="Vector_17" d="M82.9823 23.8466V20.9768H83.3887L84.3074 22.4239C84.5188 22.7572 84.6895 23.0661 84.8196 23.3588C84.7871 22.9685 84.7789 22.619 84.7789 22.1718V20.9686H85.1285V23.8384H84.7545L83.844 22.3832C83.6408 22.0661 83.4538 21.7328 83.3074 21.4239H83.2912C83.3156 21.7897 83.3237 22.1312 83.3237 22.6108V23.8384H82.9741L82.9823 23.8466Z" fill="#DC3856"/>
<path id="Vector_18" d="M86.9251 21.2939H86.0552V20.9768H88.177V21.2939H87.299V23.8466H86.9251V21.2939Z" fill="#DC3856"/>
<path id="Vector_19" d="M91.4289 22.3833C91.4289 23.3669 90.8273 23.8954 90.0956 23.8954C89.3639 23.8954 88.803 23.31 88.803 22.4402C88.803 21.5296 89.3721 20.9362 90.1363 20.9362C90.9005 20.9362 91.4289 21.5378 91.4289 22.3833ZM89.2013 22.432C89.2013 23.0418 89.5347 23.5946 90.12 23.5946C90.7053 23.5946 91.0387 23.058 91.0387 22.3995C91.0387 21.8304 90.7379 21.237 90.1281 21.237C89.5184 21.237 89.2095 21.806 89.2095 22.432H89.2013Z" fill="#DC3856"/>
</g>
<g id="Group_2">
<path id="Vector_20" d="M63.7228 1.03455C63.9342 1.03455 64.1049 1.17275 64.1049 1.34348C64.1049 1.44103 64.0806 1.53046 64.0074 1.60363L58.5848 7.8554L61.9993 16.3103C62.0237 16.4079 62.0481 16.4485 62.0481 16.4729C62.0481 16.5949 61.9506 16.6599 61.7636 16.6599H58.3491C58.1621 16.6599 57.967 16.4973 57.9019 16.3022L55.7476 10.8553L53.7314 12.7739L53.2599 16.2372C53.1867 16.5461 53.1379 16.6599 52.8534 16.6599H49.7966C49.5364 16.6599 49.3901 16.4729 49.4145 16.1884L51.4957 1.46542C51.5689 1.18088 51.6339 1.04268 51.9185 1.04268H54.9509C55.2354 1.04268 55.3573 1.20527 55.3086 1.5142L54.4793 7.48143L59.8612 1.20527C59.9588 1.08332 60.097 1.04268 60.284 1.04268H63.7228V1.03455Z" fill="#DC3856"/>
<path id="Vector_21" d="M75.8038 1.03455C76.0639 1.03455 76.1859 1.19714 76.1371 1.50607L75.7794 4.11572C75.755 4.32709 75.6818 4.40026 75.4217 4.40026H69.739L69.3569 7.19689H74.4055C74.69 7.19689 74.8282 7.38387 74.812 7.66842L74.4543 10.2293C74.4299 10.4407 74.3567 10.5138 74.0966 10.5138H68.8854L68.5033 13.3105H74.2835C74.5681 13.3105 74.7307 13.4974 74.6656 13.782L74.3079 16.3916C74.2835 16.603 74.2104 16.6762 73.9502 16.6762H64.6417C64.3571 16.6762 64.2189 16.4892 64.2352 16.2046L66.3489 1.31909C66.3733 1.10771 66.4709 1.03455 66.6822 1.03455H75.8038Z" fill="#DC3856"/>
<path id="Vector_22" d="M87.0147 11.0097L88.6731 16.3185C88.6731 16.3185 88.6975 16.3916 88.6975 16.4567C88.6975 16.5949 88.6 16.668 88.4374 16.668H85.2586C85.0473 16.668 84.9253 16.5461 84.8521 16.2859L83.5514 11.4975H81.6815L81.0149 16.2372C80.9417 16.5217 80.8767 16.6599 80.6084 16.6599H77.576C77.2671 16.6599 77.1289 16.4973 77.1695 16.1884L79.2914 1.31909C79.3158 1.10771 79.3646 1.03455 79.6247 1.03455H85.1936C88.4861 1.03455 89.9576 2.14832 89.9576 4.96934C89.9576 5.37583 89.9088 5.87174 89.8357 6.46521C89.478 8.95291 88.6243 10.3512 87.0147 11.0179V11.0097ZM82.1368 8.28628H83.6571C85.1529 8.28628 85.7871 7.76597 86.0066 6.08312C86.031 5.92052 86.0553 5.70102 86.0553 5.44087C86.0553 4.58724 85.6733 4.35148 84.3725 4.35148H82.6896L82.1449 8.28628H82.1368Z" fill="#DC3856"/>
<path id="Vector_23" d="M47.2276 16.3428L44.244 1.44103C44.1953 1.18088 44.0571 1.03455 43.8213 1.03455H40.6019C40.3905 1.03455 40.2686 1.10771 40.1954 1.24592L33.0169 16.1477C32.8949 16.4323 33.1144 16.668 33.399 16.668H36.5939C36.8053 16.668 36.9273 16.6437 37.0004 16.4567L37.4882 15.3673L40.7645 7.78223L41.7319 5.41648L41.8945 6.74162L43.2603 15.6437L43.366 16.2616C43.4148 16.5217 43.553 16.668 43.7888 16.668H46.9838C47.1464 16.668 47.2439 16.5949 47.2439 16.4567L47.2195 16.3347L47.2276 16.3428Z" fill="#DC3856"/>
</g>
<g id="Group_3">
<path id="Vector_24" d="M32.9274 1.00195L18.7004 30.4967C18.5703 30.7568 18.172 30.643 18.2126 30.3503L21.6108 6.2619L32.9274 1.00195Z" fill="#E994A4"/>
<path id="Vector_25" d="M32.9274 1.00195L0.831174 0.920654C0.522244 0.920654 0.473466 1.35966 0.766136 1.4247L21.6108 6.26189L32.9274 1.00195Z" fill="#DC3856"/>
</g>
</g>
<defs>
<clipPath id="clip0_2017_171">
<rect width="90.858" height="29.7223" fill="white" transform="translate(0.571045 0.920654)"/>
</clipPath>
</defs>
</svg>
