<svg width="14" height="12" viewBox="0 0 14 12" fill="none" xmlns="http://www.w3.org/2000/svg">
<path fill-rule="evenodd" clip-rule="evenodd" d="M3.49968 0.175114C3.73044 0.408599 3.73044 0.787153 3.49968 1.02064C1.42284 3.12201 1.42284 6.52899 3.49968 8.63036C3.73044 8.86384 3.73044 9.2424 3.49968 9.47588C3.26892 9.70937 2.89478 9.70937 2.66402 9.47588C0.125665 6.90755 0.125665 2.74345 2.66402 0.175114C2.89478 -0.0583713 3.26892 -0.0583713 3.49968 0.175114ZM11.0208 0.175114C11.2516 -0.0583713 11.6257 -0.0583713 11.8565 0.175114C14.3948 2.74345 14.3948 6.90755 11.8565 9.47588C11.6257 9.70937 11.2516 9.70937 11.0208 9.47588C10.7901 9.2424 10.7901 8.86384 11.0208 8.63036C13.0977 6.52899 13.0977 3.12201 11.0208 1.02064C10.7901 0.787153 10.7901 0.408599 11.0208 0.175114ZM5.17112 1.86613C5.40188 2.09961 5.40188 2.47817 5.17112 2.71165C4.01732 3.87908 4.01732 5.77185 5.17112 6.93928C5.40188 7.17276 5.40188 7.55132 5.17112 7.7848C4.94036 8.01829 4.56622 8.01829 4.33546 7.7848C2.72014 6.1504 2.72014 3.50053 4.33546 1.86613C4.56622 1.63264 4.94036 1.63264 5.17112 1.86613ZM9.34941 1.86613C9.58017 1.63264 9.95431 1.63264 10.1851 1.86613C11.8004 3.50053 11.8004 6.1504 10.1851 7.7848C9.95431 8.01829 9.58017 8.01829 9.34941 7.7848C9.11865 7.55132 9.11865 7.17276 9.34941 6.93928C10.5032 5.77185 10.5032 3.87908 9.34941 2.71165C9.11865 2.47817 9.11865 2.09961 9.34941 1.86613ZM7.26025 4.22761C6.93391 4.22761 6.66936 4.49529 6.66936 4.82549C6.66936 5.15568 6.93391 5.42336 7.26025 5.42336C7.5866 5.42336 7.85115 5.15568 7.85115 4.82549C7.85115 4.49529 7.5866 4.22761 7.26025 4.22761ZM5.48756 4.82549C5.48756 3.83489 6.28122 3.03186 7.26025 3.03186C8.23928 3.03186 9.03295 3.83489 9.03295 4.82549C9.03295 5.60644 8.53966 6.27083 7.85115 6.51705V11.4021C7.85115 11.7323 7.5866 12 7.26025 12C6.93391 12 6.66936 11.7323 6.66936 11.4021V6.51705C5.98085 6.27083 5.48756 5.60644 5.48756 4.82549Z" fill="#82B85B"/>
</svg>
