<svg width="16" height="12" viewBox="0 0 16 12" fill="none" xmlns="http://www.w3.org/2000/svg">
<path d="M2.21528 12H13.7847C15.2436 12 16 11.2801 16 9.91109V3.76647C16 2.39743 15.2436 1.68398 13.7847 1.68398H12.9743V0.87413C12.9743 0.327799 12.6366 0 12.0625 0H10.1781C9.5973 0 9.26636 0.327799 9.26636 0.87413V1.68398H6.72014V0.87413C6.72014 0.327799 6.38919 0 5.80836 0H3.92402C3.34318 0 3.01224 0.327799 3.01224 0.87413V1.68398H2.21528C0.756437 1.68398 0 2.391 0 3.76647V9.91109C0 11.2866 0.756437 12 2.21528 12ZM5.81511 7.26299C5.81511 7.19229 5.84888 7.12801 5.90967 7.06374L8.67201 3.78575C8.89489 3.5158 9.27311 3.7022 9.13803 4.02999L8.23976 6.31173H9.92824C10.0633 6.31173 10.1849 6.41457 10.1849 6.54312C10.1849 6.61382 10.1511 6.68452 10.0836 6.74237L7.32799 10.0204C7.10511 10.2839 6.72689 10.0975 6.85521 9.76968L7.76024 7.48795H6.07176C5.92993 7.48795 5.81511 7.39154 5.81511 7.26299Z" fill="#579EF8"/>
</svg>
