<svg width="12" height="13" viewBox="0 0 12 13" fill="none" xmlns="http://www.w3.org/2000/svg">
<path d="M11.0826 3.35191L9.43811 2.09058C9.23334 1.93357 8.93334 1.96377 8.76826 2.15851C8.60319 2.35326 8.63493 2.63859 8.83969 2.7956L10.4841 4.05693C10.6532 4.18677 10.7492 4.37925 10.7468 4.58532L10.7056 9.44875C10.704 9.67218 10.4992 9.85032 10.2595 9.82692C10.0508 9.80578 9.89922 9.62689 9.89922 9.42761V6.8989C9.89922 6.23993 9.33811 5.70626 8.64525 5.70626H7.84049V2.47177C7.84049 1.5486 7.05319 0.799805 6.08255 0.799805H2.61588C1.64525 0.799805 0.857948 1.5486 0.857948 2.47177V10.6882L0.0635036 11.8974C-0.108719 12.1601 0.089694 12.4998 0.414297 12.4998H8.33811C8.66906 12.4998 8.86588 12.1496 8.68255 11.8876L7.84207 10.6882V6.61206H8.64684C8.8135 6.61206 8.94842 6.74039 8.94842 6.8989V9.411C8.94842 10.1266 9.5643 10.741 10.3167 10.735C11.0524 10.7282 11.6532 10.1575 11.6595 9.45629L11.7008 4.59287C11.7048 4.10826 11.4794 3.65611 11.0833 3.35191H11.0826ZM6.59922 4.68571C6.59922 4.83215 6.47382 4.95142 6.31985 4.95142H2.43334C2.27938 4.95142 2.15398 4.83215 2.15398 4.68571V2.72615C2.15398 2.57971 2.27938 2.46045 2.43334 2.46045H6.31906C6.47303 2.46045 6.59842 2.57971 6.59842 2.72615V4.68571H6.59922Z" fill="#505050"/>
</svg>
