<svg width="13" height="14" viewBox="0 0 13 14" fill="none" xmlns="http://www.w3.org/2000/svg">
<path d="M6.5 0.5C2.91591 0.5 0 3.41591 0 7C0 10.5841 2.91591 13.5 6.5 13.5C10.0841 13.5 13 10.5841 13 7C13 3.41591 10.0841 0.5 6.5 0.5ZM6.5 12.7545C3.32688 12.7545 0.74552 10.1731 0.74552 7C0.74552 3.82688 3.32688 1.24552 6.5 1.24552C9.67312 1.24552 12.2545 3.82688 12.2545 7C12.2545 10.1731 9.67312 12.7545 6.5 12.7545Z" fill="#82B85B"/>
<path d="M6.49998 8.14058C7.13045 8.14058 7.64155 7.62947 7.64155 6.999C7.64155 6.36852 7.13045 5.85742 6.49998 5.85742C5.8695 5.85742 5.3584 6.36852 5.3584 6.999C5.3584 7.62947 5.8695 8.14058 6.49998 8.14058Z" fill="#82B85B"/>
<path d="M10.7255 6.6492C10.7022 6.36543 10.651 6.08959 10.5741 5.824L11.5712 5.36131C11.2306 4.61812 10.8075 3.91547 10.3099 3.26687L10.308 3.26454L9.19115 3.72536C8.9852 3.55575 8.76248 3.40479 8.52671 3.27619L8.91531 2.23945L8.84961 2.21662C8.08778 1.95289 7.30033 1.7707 6.49983 1.67285L6.05112 2.78321C5.81674 2.80791 5.58796 2.85217 5.36664 2.91368L4.95474 1.91328L4.89044 1.9417C4.15843 2.26368 3.46183 2.6602 2.81137 3.12475L3.26893 4.25701C3.07929 4.4802 2.91201 4.72296 2.7713 4.98156L1.73922 4.56873C1.43029 5.31006 1.23506 6.09378 1.15958 6.89335L1.15259 6.96837L2.27972 7.41335C2.30721 7.69665 2.36266 7.97156 2.44373 8.23575L1.41305 8.62203L1.46058 8.73432C1.76904 9.46353 2.17628 10.1471 2.67112 10.7654L3.80804 10.2729C4.01166 10.4406 4.23158 10.5897 4.46456 10.7179L4.06897 11.7905L4.10158 11.8035C4.85316 12.1041 5.64108 12.3035 6.44531 12.3962L6.92524 11.2178C7.1899 11.1913 7.4471 11.1405 7.69499 11.0673L8.12273 12.1167L8.2504 12.0575C8.97029 11.7253 9.64685 11.3068 10.2661 10.812L9.76148 9.70536C9.92502 9.5078 10.0713 9.29579 10.1976 9.0712L11.2446 9.50733C11.5232 8.73292 11.7227 7.93196 11.8391 7.11701L11.8503 7.0378L10.7251 6.64826L10.7255 6.6492ZM6.49983 3.73841C8.29839 3.73841 9.76148 5.20149 9.76148 7.00006C9.76148 8.79862 8.29839 10.2617 6.49983 10.2617C4.70126 10.2617 3.23818 8.79862 3.23818 7.00006C3.23818 5.20149 4.70126 3.73841 6.49983 3.73841Z" fill="#82B85B"/>
<path d="M6.50003 5.25249C6.7445 5.25249 6.94268 5.05431 6.94268 4.80984C6.94268 4.56537 6.7445 4.36719 6.50003 4.36719C6.25556 4.36719 6.05737 4.56537 6.05737 4.80984C6.05737 5.05431 6.25556 5.25249 6.50003 5.25249Z" fill="#82B85B"/>
<path d="M6.50003 9.63335C6.7445 9.63335 6.94268 9.43517 6.94268 9.1907C6.94268 8.94623 6.7445 8.74805 6.50003 8.74805C6.25556 8.74805 6.05737 8.94623 6.05737 9.1907C6.05737 9.43517 6.25556 9.63335 6.50003 9.63335Z" fill="#82B85B"/>
<path d="M8.69021 7.44195C8.93468 7.44195 9.13286 7.24376 9.13286 6.99929C9.13286 6.75482 8.93468 6.55664 8.69021 6.55664C8.44574 6.55664 8.24756 6.75482 8.24756 6.99929C8.24756 7.24376 8.44574 7.44195 8.69021 7.44195Z" fill="#82B85B"/>
<path d="M4.31008 7.44195C4.55455 7.44195 4.75274 7.24376 4.75274 6.99929C4.75274 6.75482 4.55455 6.55664 4.31008 6.55664C4.06561 6.55664 3.86743 6.75482 3.86743 6.99929C3.86743 7.24376 4.06561 7.44195 4.31008 7.44195Z" fill="#82B85B"/>
<path d="M8.36136 5.7637C8.53422 5.59083 8.53422 5.31033 8.36136 5.13746C8.18849 4.9646 7.90845 4.9646 7.73512 5.13746C7.56225 5.31033 7.56225 5.59083 7.73512 5.7637C7.90799 5.93657 8.18849 5.93657 8.36136 5.7637Z" fill="#82B85B"/>
<path d="M4.63844 8.2361C4.46557 8.40896 4.46557 8.689 4.63844 8.86233C4.81131 9.0352 5.09134 9.0352 5.26468 8.86233C5.43754 8.68947 5.43754 8.40896 5.26468 8.2361C5.09181 8.06323 4.81131 8.06323 4.63844 8.2361Z" fill="#82B85B"/>
<path d="M7.73561 8.2361C7.56274 8.40896 7.56274 8.689 7.73561 8.86233C7.90847 9.0352 8.18898 9.0352 8.36184 8.86233C8.53471 8.68947 8.53471 8.40896 8.36184 8.2361C8.18898 8.06323 7.90894 8.06323 7.73561 8.2361Z" fill="#82B85B"/>
<path d="M5.26419 5.7637C5.43706 5.59083 5.43706 5.31033 5.26419 5.13746C5.09132 4.9646 4.81082 4.9646 4.63795 5.13746C4.46508 5.31033 4.46508 5.59083 4.63795 5.7637C4.81082 5.93657 5.09085 5.93657 5.26419 5.7637Z" fill="#82B85B"/>
</svg>
