<svg width="12" height="12" viewBox="0 0 12 12" fill="none" xmlns="http://www.w3.org/2000/svg">
<path d="M8.2645 8.35686L3.30112 3.421L3.68969 3.05994C4.03356 2.74083 4.54111 2.67481 4.95512 2.89557L6.86771 3.91548C7.16 4.07159 7.52037 4.02001 7.75764 3.78893L9.89374 1.70441C8.84288 0.722328 7.43234 0.119873 5.88013 0.119873C2.63265 0.119873 0 2.75252 0 6C0 7.0935 0.299851 8.11685 0.819778 8.99439L2.53361 7.28537L1.52127 6.26959L2.54943 5.24418L3.56178 6.25996L3.56865 6.25309L4.63189 7.31976L4.62501 7.32664L5.67587 8.38025L4.64771 9.40566L3.59685 8.35205L1.75441 10.189C2.81558 11.2343 4.2722 11.8801 5.88013 11.8801C9.12761 11.8801 11.7603 9.24748 11.7603 6C11.7603 5.62725 11.7238 5.26275 11.6578 4.90925L8.2645 8.35618V8.35686Z" fill="#82B85B"/>
</svg>
