<svg width="14" height="14" viewBox="0 0 14 14" fill="none" xmlns="http://www.w3.org/2000/svg">
<path fill-rule="evenodd" clip-rule="evenodd" d="M12.9153 0.5C13.3819 0.5 13.7603 0.878319 13.7603 1.345V12.655C13.7603 13.1217 13.3819 13.5 12.9153 13.5C12.4486 13.5 12.0703 13.1217 12.0703 12.655V1.345C12.0703 0.878319 12.4486 0.5 12.9153 0.5ZM9.14525 3.425C9.61193 3.425 9.99025 3.80332 9.99025 4.27V12.655C9.99025 13.1217 9.61193 13.5 9.14525 13.5C8.67857 13.5 8.30025 13.1217 8.30025 12.655V4.27C8.30025 3.80332 8.67857 3.425 9.14525 3.425ZM5.37525 6.35C5.84193 6.35 6.22025 6.72832 6.22025 7.195V12.655C6.22025 13.1217 5.84193 13.5 5.37525 13.5C4.90857 13.5 4.53025 13.1217 4.53025 12.655V7.195C4.53025 6.72832 4.90857 6.35 5.37525 6.35ZM1.60525 8.43C2.07193 8.43 2.45025 8.80832 2.45025 9.275V12.655C2.45025 13.1217 2.07193 13.5 1.60525 13.5C1.13857 13.5 0.760254 13.1217 0.760254 12.655V9.275C0.760254 8.80832 1.13857 8.43 1.60525 8.43Z" fill="#82B85B"/>
</svg>
