<svg width="8" height="13" viewBox="0 0 8 13" fill="none" xmlns="http://www.w3.org/2000/svg">
<path d="M3.14414 12.4998C4.87428 12.4998 6.27679 11.2425 6.27679 9.67871C6.27679 8.87343 5.92041 8.16686 5.23066 7.59536C5.10995 7.49665 5.08121 7.43431 5.08121 7.28884L5.0927 2.72729C5.0927 1.57392 4.30523 0.799805 3.14414 0.799805C1.9773 0.799805 1.18983 1.57392 1.18983 2.72729L1.19558 7.28884C1.19558 7.43431 1.17259 7.49665 1.04613 7.59536C0.356374 8.16166 0 8.87343 0 9.67871C0 11.2425 1.40251 12.4998 3.14414 12.4998ZM3.14414 11.6114C1.95431 11.6114 0.994399 10.7386 0.994399 9.66832C0.994399 9.00851 1.33353 8.43182 1.94282 8.06814C2.11525 7.95904 2.18423 7.86552 2.18423 7.65251V2.76366C2.18423 2.11424 2.57509 1.69861 3.14414 1.69861C3.70744 1.69861 4.09256 2.11424 4.09256 2.76366V7.65251C4.09256 7.86552 4.16153 7.95904 4.33972 8.06814C4.94326 8.43182 5.28814 9.00851 5.28814 9.66832C5.28814 10.7386 4.32822 11.6114 3.14414 11.6114ZM6.17907 2.82081H7.44363C7.6563 2.82081 7.8 2.67534 7.8 2.50389C7.8 2.33244 7.6563 2.18697 7.44363 2.18697H6.17907C5.9664 2.18697 5.8227 2.33244 5.8227 2.50389C5.8227 2.67534 5.9664 2.82081 6.17907 2.82081ZM6.17907 4.26512H7.44363C7.6563 4.26512 7.8 4.11965 7.8 3.94821C7.8 3.77676 7.6563 3.63129 7.44363 3.63129H6.17907C5.9664 3.63129 5.8227 3.77676 5.8227 3.94821C5.8227 4.11965 5.9664 4.26512 6.17907 4.26512ZM3.13839 10.91C3.90287 10.91 4.51791 10.3541 4.51791 9.66313C4.51791 9.17996 4.21901 8.78511 3.77642 8.5721C3.59248 8.47858 3.535 8.41623 3.535 8.16686V5.49123C3.535 5.23666 3.35682 5.0756 3.13839 5.0756C2.91997 5.0756 2.74753 5.23666 2.74753 5.49123V8.16686C2.74753 8.41623 2.6843 8.47858 2.50037 8.5721C2.06352 8.78511 1.76463 9.17996 1.76463 9.66313C1.76463 10.3541 2.37966 10.91 3.13839 10.91ZM6.17907 5.70944H7.44363C7.6563 5.70944 7.8 5.56397 7.8 5.39252C7.8 5.22107 7.6563 5.0756 7.44363 5.0756H6.17907C5.9664 5.0756 5.8227 5.22107 5.8227 5.39252C5.8227 5.56397 5.9664 5.70944 6.17907 5.70944ZM6.17907 7.15895H7.44363C7.6563 7.15895 7.8 7.01348 7.8 6.84203C7.8 6.67059 7.6563 6.52512 7.44363 6.52512H6.17907C5.9664 6.52512 5.8227 6.67059 5.8227 6.84203C5.8227 7.01348 5.9664 7.15895 6.17907 7.15895Z" fill="#ED1200"/>
</svg>
